<?xml version="1.0" encoding="UTF-8"?>
<svg id="Layer_1" data-name="Layer 1" xmlns="http://www.w3.org/2000/svg" viewBox="0 0 459.79 459.79">
  <defs>
    <style>
      .cls-1, .cls-2 {
        fill: #fff;
      }

      .cls-3 {
        opacity: .8;
      }

      .cls-2 {
        stroke-width: 0px;
      }
    </style>
  </defs>
  <g>
    <path class="cls-2" d="m193.76,352.88c-5.54-5.85-8.24-12.85-7.81-21.09-5.76,7.43-6.03,15.6-3.35,24.72-1.06-.28-1.95-.25-2.39-.68-6.28-6.05-11.19-12.93-12.55-21.81-.84-5.48-.11-10.83,1.71-16.02.87-2.48,2.15-3.21,4.74-2.77,5.76.97,11.24,2.68,15.94,6.35.33.26.76.4,1.15.59.1-.11.19-.21.29-.32-.92-1.11-1.86-2.2-2.76-3.32-4.05-4.98-8.8-9.12-14.57-12.03-7-3.52-14.46-4.8-22.19-4.35-3.25.19-5.2-.89-6.78-3.75-5.11-9.25-9.24-18.83-10.97-29.33-1.13-6.87-1.21-13.75-.18-20.63.4-2.66,1.06-3.11,3.62-3.83,1.74-.48,3.41-1.37,4.97-2.32,18.27-11.14,27.3-32.88,22.23-54.05-1.17-4.89-3.12-9.61-4.85-14.36-.81-2.22-.74-3.47,1.09-5.25,6.67-6.45,14.19-11.74,22.42-16,10.64-5.5,21.68-9.97,33.53-12.08,11.26-2.01,22.4-1.48,33.42,1.75,13.77,4.03,26.75,9.69,38.4,18.14,3.18,2.31,6.23,4.84,9.18,7.44,2.93,2.58,2.9,4.22,1.26,7.72-7.67,16.34-8.13,32.66.66,48.78,4.42,8.12,10.87,14.29,18.85,18.9.96.55,2.02,1.03,3.1,1.27,2.65.57,3.64,1.24,3.85,3.98.37,4.94.91,9.94.5,14.83-1.05,12.48-5.18,24.03-11.46,34.86-1.72,2.97-3.87,4.14-7.37,3.95-11.58-.62-22.01,2.57-30.69,10.46-2.83,2.57-5.26,5.58-7.85,8.41-.29.32-.42.78-.42,1.37,1.02-.72,2-1.51,3.06-2.15,4.62-2.8,9.68-4.38,15-5.14,1.81-.26,2.54.26,3.39,2.16,3.88,8.72,3.3,17.32-.71,25.82-2.4,5.09-5.72,9.44-10.33,12.74-.28.2-.59.35-1.21.72.34-2.31.63-4.31.94-6.3.99-6.46-.41-12.4-3.86-17.89-.26-.42-.59-.79-1.08-1.2-.1,8.1-1.23,15.77-8.06,21.72-.31-7.88-1.94-15.03-8.75-20.22-.55,6.31-2.3,11.77-7.37,15.99-.67-4.47-1.1-8.77-4.18-12.57-1.51,5.46-3.51,10.37-8.48,13.34-2.2-3.94-4.36-7.8-6.67-11.94-3.09,3.8-4.95,7.93-7.04,12.03-4.86-3.01-7.11-7.53-8.37-12.93-3.77,3.1-3.45,7.63-4.67,11.83-4.93-4.07-6.54-9.49-7.04-15.72-3.37,2.43-5.77,5.32-6.85,9.02-1.05,3.6-1.6,7.35-2.4,11.18Zm50.02-86.56c3.31,1.27,6.67,2.23,9.72,3.8,3.67,1.9,7.08,4.31,10.59,6.51,3.24,2.04,6.68,3.59,10.53,3.99,7.99.83,14.76-2.11,20.82-6.99,6.95-5.6,11.89-12.93,16.98-20.11.03-.04-.06-.17-.12-.35-.73.1-1.49.2-2.24.32-6.53,1.1-12.74.21-18.58-2.99-1.8-.98-3.63-1.89-5.48-2.77-3.42-1.62-7.03-2.5-10.72-1.35-4.24,1.31-8.53,2.61-12.51,4.52-7.58,3.64-13.61,9.34-18.97,15.42Zm-28.22-.03c-.26-.35-.7-1.03-1.22-1.64-6.53-7.62-14.55-13.09-23.91-16.69-6.94-2.66-13.52-2.44-20.01,1.46-4.56,2.75-9.55,4.56-14.97,4.48-2.83-.04-5.65-.56-8.57-.87,1.95,2.65,3.91,5.37,5.94,8.05,3.99,5.28,8.14,10.43,13.69,14.19,9.9,6.72,20.07,7.67,30.32.66,2.7-1.85,5.4-3.75,8.31-5.23,3.34-1.7,6.9-2.94,10.42-4.41Zm-5.17,43.65c.47,2.19.88,4.93,1.67,7.55.95,3.15,1.81,3.48,4.86,2.42,4.31-1.5,8.25-3.58,11.24-7.18,1.23-1.47,1.91-1.41,3.29-.07.4.39.79.8,1.2,1.19,3.15,3.08,6.95,5.03,11.08,6.38,1.91.62,3.09.05,3.67-1.68,1.32-3.95,2.18-7.89,1.56-12.18-1.63-11.44-6.07-21.29-15.11-28.79-3-2.49-4.71-2.51-7.75-.1-10.28,8.15-14.23,19.37-15.72,32.47Z"/>
    <path class="cls-2" d="m286.82,385.55c15.2-17.25,22.61-37.18,23.13-59.82.18-.02.36-.05.54-.07.36.55.91,1.06,1.04,1.66,1.03,4.69,2.13,9.38,2.91,14.11,1.19,7.23,1.49,14.5-.98,21.56-1.1,3.12-2.67,6.08-4,9.12-.19.44-.22.96-.06,1.53,4.5-4.04,7.55-9.1,10.86-13.96.14.05.28.1.42.15-.24,2.31-.33,4.64-.76,6.92-.83,4.47-1.84,8.92-2.8,13.37-.42,1.97-1.86,2.95-3.63,3.62-6.8,2.59-13.41,5.62-19.63,9.42-10.14,6.18-19.61,13.23-27.3,22.4-3.11,3.71-5.59,7.83-7.58,12.23-.56,1.24-1.11,1.32-2.33.89-5.16-1.82-10.34-3.62-15.58-5.21-8.2-2.5-16.4-1.99-24.49.57-4.92,1.56-9.79,3.27-14.8,4.96-.05-.06-.24-.23-.34-.45-7.47-14.78-18.89-25.74-33.09-33.92-5.27-3.03-10.84-5.53-16.27-8.28-1.41-.72-2.86-1.38-4.22-2.19-4-2.36-6.34-5.85-6.94-10.49-.52-4.01-1.06-8.01-1.58-12.02-.06-.45,0-.91,0-1.79,1.03,1.43,1.81,2.59,2.66,3.7,2.4,3.12,4.82,6.24,7.27,9.32.26.33.81.44,1.22.65-.04-.44.06-.98-.15-1.32-5.73-9.51-6.79-19.83-5.07-30.54.77-4.79,1.94-9.52,2.99-14.26.14-.63.65-1.17,1.29-1.75.82,22.59,8.19,42.5,23.25,59.48,1.18-7.15,3.66-13.61,8.79-19-1.1,13.36,4.28,24.26,12.62,34.13-1.92-9.8-2.17-19.31,4.14-27.94.63,9.18,3.9,17.16,10.65,24.16-1.57-7.1-2.03-13.73,1.07-20.26,1.29,2.95,2.4,5.83,3.79,8.56,1.44,2.8,3.56,5.07,6.46,6.98.61-4.54,1.8-8.65,5.13-12.28.45,5.06,1.43,9.64,4.34,13.7,3.19-3.87,4.14-8.36,4.5-13.36,3.66,3.29,4.57,7.44,5.18,11.91,5.82-3.69,8.13-9.41,10.05-15.85,3.35,6.82,3,13.39,1.21,20.1,3.86-2.61,6.13-6.37,7.49-10.56,1.35-4.15,2.15-8.48,3.25-12.98.71.79,1.62,1.58,2.26,2.55,2.07,3.17,2.57,6.81,2.48,10.46-.12,4.85-.59,9.7-.91,14.55-.03.39-.05.78-.11,1.63,8.31-10.65,14.23-21.68,13.03-35.42,5.28,5.36,7.59,11.94,8.64,19.36Z"/>
    <path class="cls-2" d="m121.26,33.03c4.61,2.61,8.46,5.88,10.98,10.4,5.35,9.58,8.92,19.76,9.53,30.82.4,7.08-.61,13.98-2.82,20.72-.64,1.93-1.09,3.94-1.46,5.95-1,5.38-4.05,9.55-7.71,13.37-5.96,6.21-11.92,12.4-16.98,19.39-.78,1.08-1.51,2.19-2.25,3.3-.82,1.23-.71,2.4.23,3.52,1.12,1.33,2.27,2.64,3.33,4.02,5.93,7.69,7.88,16.51,7.21,26.02-.88,12.48-5.17,23.71-12.6,33.76-.95,1.29-1.74,1.26-2.49-.14-4.49-8.36-8.55-16.89-11.11-26.07-4.14-14.83-5.26-29.8-1.95-44.94,2.17-9.94,6.2-19.15,11.33-27.9,4.68-7.99,9.63-15.85,13.87-24.07,7.25-14.03,8.45-28.79,3.88-43.96-.37-1.22-.73-2.45-1.09-3.68-.03-.09.03-.19.08-.52Z"/>
    <path class="cls-2" d="m338.7,33.27c-.61,2.09-1.27,4.17-1.81,6.27-4.09,15.86-1.81,30.87,6.2,45.04,4.18,7.39,8.64,14.63,12.9,21.99,6.36,10.97,10.63,22.69,12.06,35.34,1.09,9.65.28,19.2-1.65,28.7-2.47,12.11-7.12,23.36-13.24,34.04-.22.38-.5.73-1.01,1.48-2.21-3.52-4.54-6.66-6.28-10.1-4.19-8.29-7.14-17.01-7.43-26.4-.32-10.39,2.27-19.88,9.41-27.78.1-.11.21-.23.31-.34,2.16-2.49,2.34-3.01.36-5.57-3.66-4.73-7.43-9.39-11.32-13.94-3.23-3.77-6.78-7.26-10.03-11.01-2.73-3.15-4.25-6.95-5.11-11.03-.47-2.25-1.04-4.49-1.74-6.68-2.23-6.94-2.74-13.99-1.98-21.23.93-8.79,2.81-17.28,7.18-25.05,2.32-4.13,5.1-7.93,8.66-11.08,1.27-1.13,2.8-1.97,4.21-2.94.1.09.2.18.3.27Z"/>
    <path class="cls-2" d="m329.75,129.23c.51.65,1.01,1.27,1.51,1.89,2.32,2.86,4.65,5.71,6.96,8.59,1.03,1.28,1.22,2.73.38,4.16-7.58,12.96-7.96,26.82-5.11,41.06,1.91,9.54,5.87,18.17,11.69,25.96,1.68,2.24,1.77,3.17-.11,5.28-3.54,3.97-7.2,7.84-10.84,11.72-1.93,2.05-3.99,3.98-5.87,6.07-1.57,1.76-3.34,1.98-5.41,1.19-5.41-2.07-9.91-5.41-13.16-10.19-9.42-13.85-10.8-28.62-4.56-44.11,1.49-3.69,3.88-6.85,6.56-9.77,5.69-6.19,10.38-13.02,13.65-20.82,2.52-6.02,4.1-12.21,3.76-18.79-.03-.56.03-1.12.07-1.68,0-.08.12-.15.48-.56Z"/>
    <path class="cls-2" d="m130.46,129.45c.12,2.39.15,4.78.37,7.16.97,10.7,5.4,19.96,11.94,28.3,1.32,1.69,2.68,3.38,4.18,4.91,6.03,6.15,9.48,13.54,10.65,22,1.54,11.12-.18,21.64-6.3,31.21-3.48,5.44-8.14,9.56-14.19,11.99-2.63,1.06-3.97.75-5.9-1.28-5.28-5.57-10.56-11.14-15.84-16.71-.32-.33-.6-.7-.88-1.07-1.44-1.88-1.35-2.81-.09-4.85,2.56-4.12,5.4-8.14,7.39-12.53,6.56-14.48,7.97-29.54,3.81-44.94-.8-2.97-2.36-5.76-3.78-8.52-1.44-2.78-1.51-3.98.47-6.43,2.25-2.79,4.57-5.52,6.85-8.28.32-.39.6-.82.9-1.23.14.09.28.19.42.28Z"/>
  </g>
  <g class="cls-3">
    <path class="cls-1" d="m193.76,352.88c-5.54-5.85-8.24-12.85-7.81-21.09-5.76,7.43-6.03,15.6-3.35,24.72-1.06-.28-1.95-.25-2.39-.68-6.28-6.05-11.19-12.93-12.55-21.81-.84-5.48-.11-10.83,1.71-16.02.87-2.48,2.15-3.21,4.74-2.77,5.76.97,11.24,2.68,15.94,6.35.33.26.76.4,1.15.59.1-.11.19-.21.29-.32-.92-1.11-1.86-2.2-2.76-3.32-4.05-4.98-8.8-9.12-14.57-12.03-7-3.52-14.46-4.8-22.19-4.35-3.25.19-5.2-.89-6.78-3.75-5.11-9.25-9.24-18.83-10.97-29.33-1.13-6.87-1.21-13.75-.18-20.63.4-2.66,1.06-3.11,3.62-3.83,1.74-.48,3.41-1.37,4.97-2.32,18.27-11.14,27.3-32.88,22.23-54.05-1.17-4.89-3.12-9.61-4.85-14.36-.81-2.22-.74-3.47,1.09-5.25,6.67-6.45,14.19-11.74,22.42-16,10.64-5.5,21.68-9.97,33.53-12.08,11.26-2.01,22.4-1.48,33.42,1.75,13.77,4.03,26.75,9.69,38.4,18.14,3.18,2.31,6.23,4.84,9.18,7.44,2.93,2.58,2.9,4.22,1.26,7.72-7.67,16.34-8.13,32.66.66,48.78,4.42,8.12,10.87,14.29,18.85,18.9.96.55,2.02,1.03,3.1,1.27,2.65.57,3.64,1.24,3.85,3.98.37,4.94.91,9.94.5,14.83-1.05,12.48-5.18,24.03-11.46,34.86-1.72,2.97-3.87,4.14-7.37,3.95-11.58-.62-22.01,2.57-30.69,10.46-2.83,2.57-5.26,5.58-7.85,8.41-.29.32-.42.78-.42,1.37,1.02-.72,2-1.51,3.06-2.15,4.62-2.8,9.68-4.38,15-5.14,1.81-.26,2.54.26,3.39,2.16,3.88,8.72,3.3,17.32-.71,25.82-2.4,5.09-5.72,9.44-10.33,12.74-.28.2-.59.35-1.21.72.34-2.31.63-4.31.94-6.3.99-6.46-.41-12.4-3.86-17.89-.26-.42-.59-.79-1.08-1.2-.1,8.1-1.23,15.77-8.06,21.72-.31-7.88-1.94-15.03-8.75-20.22-.55,6.31-2.3,11.77-7.37,15.99-.67-4.47-1.1-8.77-4.18-12.57-1.51,5.46-3.51,10.37-8.48,13.34-2.2-3.94-4.36-7.8-6.67-11.94-3.09,3.8-4.95,7.93-7.04,12.03-4.86-3.01-7.11-7.53-8.37-12.93-3.77,3.1-3.45,7.63-4.67,11.83-4.93-4.07-6.54-9.49-7.04-15.72-3.37,2.43-5.77,5.32-6.85,9.02-1.05,3.6-1.6,7.35-2.4,11.18Zm50.02-86.56c3.31,1.27,6.67,2.23,9.72,3.8,3.67,1.9,7.08,4.31,10.59,6.51,3.24,2.04,6.68,3.59,10.53,3.99,7.99.83,14.76-2.11,20.82-6.99,6.95-5.6,11.89-12.93,16.98-20.11.03-.04-.06-.17-.12-.35-.73.1-1.49.2-2.24.32-6.53,1.1-12.74.21-18.58-2.99-1.8-.98-3.63-1.89-5.48-2.77-3.42-1.62-7.03-2.5-10.72-1.35-4.24,1.31-8.53,2.61-12.51,4.52-7.58,3.64-13.61,9.34-18.97,15.42Zm-28.22-.03c-.26-.35-.7-1.03-1.22-1.64-6.53-7.62-14.55-13.09-23.91-16.69-6.94-2.66-13.52-2.44-20.01,1.46-4.56,2.75-9.55,4.56-14.97,4.48-2.83-.04-5.65-.56-8.57-.87,1.95,2.65,3.91,5.37,5.94,8.05,3.99,5.28,8.14,10.43,13.69,14.19,9.9,6.72,20.07,7.67,30.32.66,2.7-1.85,5.4-3.75,8.31-5.23,3.34-1.7,6.9-2.94,10.42-4.41Zm-5.17,43.65c.47,2.19.88,4.93,1.67,7.55.95,3.15,1.81,3.48,4.86,2.42,4.31-1.5,8.25-3.58,11.24-7.18,1.23-1.47,1.91-1.41,3.29-.07.4.39.79.8,1.2,1.19,3.15,3.08,6.95,5.03,11.08,6.38,1.91.62,3.09.05,3.67-1.68,1.32-3.95,2.18-7.89,1.56-12.18-1.63-11.44-6.07-21.29-15.11-28.79-3-2.49-4.71-2.51-7.75-.1-10.28,8.15-14.23,19.37-15.72,32.47Zm67.79,56.24c1.2,13.74-4.72,24.78-13.03,35.42.06-.85.08-1.24.11-1.63.32-4.85.78-9.69.91-14.55.09-3.65-.41-7.29-2.48-10.46-.64-.97-1.55-1.76-2.26-2.55-1.1,4.5-1.9,8.83-3.25,12.98-1.36,4.19-3.63,7.96-7.49,10.56,1.79-6.71,2.14-13.28-1.21-20.1-1.92,6.44-4.24,12.16-10.05,15.85-.61-4.47-1.52-8.62-5.18-11.91-.36,4.99-1.31,9.49-4.5,13.36-2.92-4.06-3.9-8.64-4.34-13.7-3.33,3.63-4.51,7.74-5.13,12.28-2.89-1.91-5.02-4.18-6.46-6.98-1.4-2.73-2.5-5.61-3.79-8.56-3.1,6.54-2.64,13.16-1.07,20.26-6.75-7-10.02-14.98-10.65-24.16-6.31,8.63-6.06,18.14-4.14,27.94-8.34-9.86-13.72-20.77-12.62-34.13-5.12,5.39-7.61,11.85-8.79,19-15.06-16.98-22.43-36.89-23.25-59.48-.64.58-1.15,1.13-1.29,1.75-1.05,4.74-2.22,9.47-2.99,14.26-1.72,10.71-.67,21.03,5.07,30.54.21.35.11.88.15,1.32-.41-.21-.96-.32-1.22-.65-2.45-3.08-4.87-6.2-7.27-9.32-.85-1.11-1.63-2.27-2.66-3.7,0,.89-.05,1.35,0,1.79.52,4.01,1.06,8.02,1.58,12.02.6,4.63,2.94,8.12,6.94,10.49,1.36.8,2.81,1.47,4.22,2.19,5.43,2.75,11.01,5.25,16.27,8.28,14.19,8.17,25.62,19.14,33.09,33.92.11.21.3.39.34.45,5.01-1.69,9.88-3.4,14.8-4.96,8.09-2.56,16.29-3.07,24.49-.57,5.24,1.59,10.41,3.39,15.58,5.21,1.21.43,1.77.34,2.33-.89,1.99-4.4,4.47-8.52,7.58-12.23,7.7-9.17,17.16-16.22,27.3-22.4,6.22-3.79,12.83-6.82,19.63-9.42,1.77-.67,3.2-1.65,3.63-3.62.96-4.45,1.96-8.89,2.8-13.37.42-2.27.51-4.61.76-6.92-.14-.05-.28-.1-.42-.15-3.3,4.86-6.36,9.92-10.86,13.96-.16-.58-.13-1.09.06-1.53,1.33-3.04,2.91-6,4-9.12,2.47-7.05,2.17-14.33.98-21.56-.78-4.74-1.88-9.42-2.91-14.11-.13-.6-.68-1.11-1.04-1.66-.18.02-.36.05-.54.07-.51,22.64-7.93,42.57-23.13,59.82-1.05-7.42-3.36-14-8.64-19.36ZM121.18,33.55c.36,1.23.72,2.45,1.09,3.68,4.56,15.17,3.37,29.92-3.88,43.96-4.25,8.22-9.19,16.08-13.87,24.07-5.13,8.76-9.15,17.96-11.33,27.9-3.31,15.14-2.19,30.1,1.95,44.94,2.56,9.18,6.63,17.71,11.11,26.07.75,1.4,1.53,1.43,2.49.14,7.43-10.05,11.72-21.28,12.6-33.76.67-9.51-1.28-18.33-7.21-26.02-1.06-1.38-2.22-2.68-3.33-4.02-.94-1.12-1.05-2.3-.23-3.52.74-1.11,1.47-2.22,2.25-3.3,5.07-6.98,11.03-13.18,16.98-19.39,3.66-3.81,6.71-7.99,7.71-13.37.37-2,.83-4.01,1.46-5.95,2.21-6.74,3.22-13.63,2.82-20.72-.62-11.06-4.19-21.24-9.53-30.82-2.52-4.52-6.38-7.8-10.98-10.4-.05.32-.11.43-.08.52Zm217.21-.55c-1.41.97-2.94,1.81-4.21,2.94-3.56,3.15-6.34,6.96-8.66,11.08-4.37,7.78-6.25,16.26-7.18,25.05-.76,7.24-.25,14.29,1.98,21.23.7,2.19,1.26,4.43,1.74,6.68.86,4.08,2.38,7.87,5.11,11.03,3.25,3.75,6.8,7.24,10.03,11.01,3.89,4.55,7.66,9.2,11.32,13.94,1.98,2.56,1.8,3.08-.36,5.57-.1.12-.2.23-.31.34-7.14,7.9-9.73,17.39-9.41,27.78.29,9.38,3.24,18.11,7.43,26.4,1.74,3.44,4.07,6.58,6.28,10.1.52-.75.79-1.1,1.01-1.48,6.12-10.68,10.77-21.93,13.24-34.04,1.93-9.5,2.74-19.05,1.65-28.7-1.43-12.65-5.7-24.37-12.06-35.34-4.26-7.35-8.72-14.59-12.9-21.99-8.01-14.17-10.29-29.18-6.2-45.04.54-2.11,1.2-4.18,1.81-6.27-.1-.09-.2-.18-.3-.27Zm-9.12,96.8c-.04.56-.1,1.12-.07,1.68.34,6.58-1.24,12.77-3.76,18.79-3.26,7.8-7.96,14.63-13.65,20.82-2.68,2.92-5.07,6.08-6.56,9.77-6.23,15.49-4.86,30.25,4.56,44.11,3.25,4.78,7.74,8.12,13.16,10.19,2.07.79,3.83.57,5.41-1.19,1.88-2.1,3.94-4.02,5.87-6.07,3.64-3.88,7.3-7.75,10.84-11.72,1.87-2.1,1.78-3.03.11-5.28-5.82-7.79-9.78-16.42-11.69-25.96-2.85-14.25-2.46-28.1,5.11-41.06.84-1.43.65-2.88-.38-4.16-2.3-2.87-4.64-5.72-6.96-8.59-.5-.62-.99-1.25-1.51-1.89-.36.41-.47.48-.48.56Zm-199.23-.63c-.3.41-.58.84-.9,1.23-2.28,2.76-4.6,5.49-6.85,8.28-1.98,2.45-1.91,3.65-.47,6.43,1.43,2.76,2.98,5.55,3.78,8.52,4.16,15.41,2.75,30.47-3.81,44.94-1.99,4.39-4.84,8.4-7.39,12.53-1.26,2.04-1.36,2.97.09,4.85.28.37.56.73.88,1.07,5.28,5.57,10.57,11.13,15.84,16.71,1.93,2.04,3.26,2.34,5.9,1.28,6.05-2.43,10.71-6.55,14.19-11.99,6.12-9.57,7.84-20.09,6.3-31.21-1.17-8.45-4.63-15.85-10.65-22-1.5-1.53-2.85-3.22-4.18-4.91-6.54-8.35-10.97-17.61-11.94-28.3-.22-2.38-.25-4.77-.37-7.16-.14-.09-.28-.19-.42-.28Z"/>
  </g>
</svg>