<?xml version="1.0" encoding="UTF-8"?>
<svg id="Layer_1" data-name="Layer 1" xmlns="http://www.w3.org/2000/svg" viewBox="0 0 459.79 459.79">
  <defs>
    <style>
      .cls-1 {
        fill: #fff;
        stroke-width: 0px;
      }
    </style>
  </defs>
  <path class="cls-1" d="m121.04,55.65c3.01,2.38,5.96,4.84,9.03,7.14,20.02,15.02,40.07,30.01,60.1,45.02.66.49,1.28,1.02,2.19,1.75-1.8.74-3.36,1.27-4.82,2.01-4.41,2.22-8.82,4.46-13.15,6.83-1.24.68-2.04.75-3.2-.16-4.26-3.32-8.61-6.51-12.94-9.75-.22-.17-.49-.27-1.07-.6,2.84,9.25,5.58,18.16,8.32,27.07,3.78,12.28,7.55,24.56,11.4,36.82.44,1.4.29,2.15-.95,3-5.08,3.46-10.08,7.03-15.34,10.71-2.06-6.56-4.06-12.83-6-19.12-5.64-18.23-11.25-36.47-16.88-54.71-5.65-18.3-11.32-36.6-16.97-54.9-.11-.35-.12-.74-.18-1.11.15,0,.3,0,.46,0Z"/>
  <path class="cls-1" d="m304.19,193.19c36.23,27.12,72.17,54.03,108.12,80.94-.05.2-.09.4-.14.59-29.54-.42-59.07-.85-88.92-1.28.33-.7.54-1.21.8-1.7,2.88-5.44,5.82-10.85,8.61-16.33.57-1.13,1.13-1.51,2.38-1.5,5.69.07,11.38.03,17.42.03-.85-.68-1.57-1.27-2.3-1.82-16.93-12.67-33.86-25.34-50.83-37.96-1.41-1.05-1.66-1.92-1.07-3.57,2.04-5.64,3.89-11.35,5.93-17.41Z"/>
  <path class="cls-1" d="m109.07,251.1c10.49,0,20.97-.07,31.46.02,11.57.1,23.15.38,34.72.49,1.67.02,2.38.56,2.83,2.14,1.66,5.76,3.47,11.47,5.35,17.63-45.24-.67-90.18-1.34-135.11-2-.09-.15-.18-.3-.28-.45,24.22-17.04,48.43-34.09,72.52-51.03,1.17,7,2.34,13.79,3.37,20.6.08.56-.56,1.45-1.11,1.84-4.61,3.33-9.29,6.59-13.94,9.86.06.3.13.6.19.89Z"/>
  <path class="cls-1" d="m272.37,275.91c-14.73,43.15-29.24,85.64-43.74,128.12-.16.02-.32.04-.48.05-8.74-28.24-17.47-56.49-26.32-85.09,2.66.58,5.03,1.21,7.43,1.6,4.2.69,8.41,1.33,12.64,1.79,1.32.15,1.77.63,2.13,1.81,1.63,5.46,3.37,10.89,5.22,16.84.43-1.11.73-1.82.98-2.54,6.88-20.14,13.78-40.28,20.57-60.45.61-1.8,1.42-2.23,3.23-2.18,5.92.14,11.85.05,18.34.05Z"/>
  <path class="cls-1" d="m308.31,109.85c-9.77,6.86-18.98,13.32-28.18,19.79-8.89,6.26-17.78,12.53-26.65,18.83-1.12.79-1.94.98-3.17.04-4.87-3.75-9.85-7.38-15.09-11.28,37.06-26.08,73.86-51.97,111.23-78.27-9.78,28.65-19.36,56.7-29.02,85-2.14-2.37-4.07-4.67-6.17-6.81-2.61-2.66-5.25-5.31-8.09-7.72-1.21-1.03-.94-1.85-.57-2.95,1.83-5.31,3.65-10.62,5.71-16.64Z"/>
  <path class="cls-1" d="m145.7,149.14c2.13,6.85,4.11,13.55,6.33,20.17.97,2.9.78,5.34-.47,8.23-9.78,22.6-9.98,45.42-.97,68.34.21.54.38,1.11.58,1.68-6.67,0-13.2.04-19.72-.07-.58-.01-1.45-.94-1.68-1.62-3.91-11.5-5.62-23.36-5.34-35.47.52-21.74,7.11-41.52,19.56-59.35.35-.5.7-1,1.07-1.48.08-.11.24-.17.65-.42Z"/>
  <path class="cls-1" d="m173.02,147.55c-1.99-6.41-4-12.69-5.82-19.02-.17-.58.65-1.73,1.31-2.21,11.61-8.39,24.37-14.3,38.35-17.52,18.96-4.36,37.74-3.62,56.33,2.12.62.19,1.21.46,2.19.83-4.81,3.38-9.33,6.55-13.85,9.73-1.93,1.36-3.79,2.83-5.82,4.01-1.02.59-2.41,1.01-3.55.87-16.68-2.09-32.63.45-47.84,7.48-3.78,1.75-7.41,3.9-10.91,6.16-3.5,2.26-6.76,4.9-10.37,7.56Z"/>
  <path class="cls-1" d="m337.33,213.76c-5.21-3.91-10.27-8.04-15.69-11.65-3.5-2.34-4.96-5.27-5.88-9.29-4.25-18.7-13.89-34.26-28.56-46.62-3.71-3.12-7.77-5.84-11.8-8.83.31-.27.72-.67,1.19-1,4.78-3.39,9.59-6.74,14.34-10.16,1.04-.75,1.76-.74,2.8.04,24.12,18.17,38.83,41.98,43.06,72.01.71,5.03.87,10.13,1.29,15.19l-.75.31Z"/>
  <path class="cls-1" d="m316.42,231.21c5.43,4.07,10.74,8.01,15.96,12.05.42.33.54,1.48.35,2.11-3.62,11.94-9.47,22.75-17.09,32.55-13.14,16.91-29.91,28.85-50.19,35.81-.69.24-1.4.4-2.54.72,1.62-4.84,3.09-9.28,4.6-13.71,1.13-3.31,1.65-7.1,3.66-9.75,1.93-2.54,5.44-3.87,8.22-5.78,18.55-12.67,30.73-29.83,36.35-51.61.19-.72.4-1.43.67-2.39Z"/>
  <path class="cls-1" d="m144.33,274.58c8.38,0,16.51-.03,24.64.05.71,0,1.53.6,2.09,1.13,13.87,13,30.22,20.89,49.06,23.25,6,.75,12.15.32,18.23.44.43,0,.86,0,1.5,0-2.19,6.46-4.26,12.73-6.49,18.94-.18.51-1.43.9-2.18.91-12.61.12-24.83-2.03-36.66-6.4-20.12-7.43-36.51-19.83-49.3-37.01-.31-.41-.57-.85-.88-1.31Z"/>
  <path class="cls-1" d="m228.95,165.71c-27.01,19.01-53.73,37.81-81.04,57.03-.12-4.65-.35-8.71-.29-12.76.04-2.88.6-5.75.69-8.63.08-2.48,1.33-3.94,3.26-5.29,19.62-13.74,39.21-27.53,58.77-41.37,1.54-1.09,2.53-1.15,4.08.08,4.64,3.69,9.46,7.15,14.53,10.94Z"/>
  <path class="cls-1" d="m275.19,196.01c-26.36-19.74-52.51-39.32-79.22-59.32,3.88-1.4,7.21-2.78,10.65-3.79,3.64-1.07,7.35-1.93,11.09-2.59,1.15-.2,2.72.25,3.68.96,19.73,14.66,39.39,29.41,59.09,44.11.98.73,1.43,1.28.97,2.56-2.1,5.86-4.09,11.77-6.26,18.06Z"/>
  <path class="cls-1" d="m292.56,155.97c4.85,5.21,8.65,10.75,12.07,16.61,1.42,2.45,1.58,4.6.65,7.27-7.84,22.63-15.58,45.3-23.29,67.98-.5,1.48-1.13,1.97-2.71,1.94-6.08-.11-12.17-.04-18.72-.04,10.76-31.52,21.33-62.5,32-93.76Z"/>
  <path class="cls-1" d="m205.32,252.02c32.98.49,65.68.98,99.17,1.48-3.09,4.33-5.65,8.34-8.64,12.01-6.1,7.5-6.19,7.38-15.8,7.23-22.08-.33-44.15-.64-66.23-.86-1.86-.02-2.62-.57-3.13-2.33-1.65-5.76-3.5-11.46-5.38-17.53Z"/>
  <path class="cls-1" d="m214.82,294.61c-8.02-1.48-15.12-4.11-21.87-7.68-.86-.45-1.57-1.62-1.88-2.61-6.39-20.55-12.7-41.12-19.04-61.69-.92-2.98-1.79-5.98-2.8-8.93-.39-1.15-.14-1.77.84-2.45,5.13-3.53,10.22-7.13,15.62-10.91,9.7,31.39,19.35,62.64,29.12,94.26Z"/>
</svg>