<?xml version="1.0" encoding="UTF-8"?>
<svg id="Layer_1" data-name="Layer 1" xmlns="http://www.w3.org/2000/svg" viewBox="0 0 459.79 459.79">
  <defs>
    <style>
      .cls-1 {
        fill: #fff;
        stroke-width: 0px;
      }
    </style>
  </defs>
  <path class="cls-1" d="m75.39,391.24c10.23-29.07,68.72-131.32,74.48-156.63.41-1.8,1.79-8.67,6.77-15.8,4.24-6.07,8.9-9.2,13.09-12.19,12.54-8.94,23.17-16.53,31.15-26.63.22-.28.03-.04,13.54-25.28,9.4-17.55,11.2-20.86,11.28-26.63.08-5.74.51-8.79,1.35-14.9.48-3.46.93-5.83,2.62-8.27.56-.81,1.52-1.74,3.45-3.59,5.25-5.02,7.54-5.89,8.57-6.22,1.54-.49,3.2-.7,3.23-.59.03.1-1.2.34-2.67,1.08-.91.45-3.7,1.98-5.35,5.15-.07.13-.3.59-.67,1.57-1.19,3.23-3.02,8.19-1.08,12.37.41.89,1.03,1.68,2.29,3.24,5.12,6.35,7.95,6.29,9.82,9.82,2.73,5.17-.48,10.79,1.02,11.4,1.63.66,5.71-5.91,5.76-5.98,10.19-16.41,25.9-34.04,32.33-40.34,6.17-6.05,18.61-18.25,36.56-19.3,11.63-.68,27.62,3.2,33.01,14.05,2.27,4.58,1.68,10.95,1.55,13.59-.06,1.29-.34,5.71-2.92,9.88-.11.17-.92,1.47-1.21,1.35-.56-.24,2.79-5.02,1.59-10.03-1.13-4.71-5.88-8.06-6.9-8.66-.12-.07-.21-.12-.27-.16-1.32-.75-2.35-1.33-3.87-1.55-3.59-.51-5.71,1.6-10.2,3.68-2.27,1.05-5.03,1.75-10.57,3.15-8.07,2.04-8.97,1.37-12.18,2.76-5.12,2.2-8.19,5.87-10.28,9.27-10.25,16.67-25.05,29.95-23.61,31.23.52.47,2.6-1.17,4.91-2.88,0,0,11.92-8.82,28.69-17.18,3.26-1.62,17.68-1.73,46.38-1.86,9.66-.05,23.43,0,33.52,5.08.97.49,5.25,4.03,11.59,8.04,2.99,1.89,2.9,1.7,4.12,2.59,2.15,1.58,7.05,5.29,9.56,11.84,1.14,2.98,1.49,5.81,1.13,5.93-.69.24-2.94-9.52-9.62-12.98-2.74-1.42-5.61-1.5-5.61-1.5-2.42-.07-4.24.62-4.74.8-3.29,1.19-10.07,1.7-23.44,3.98-12.01,2.04-28.72,2.37-37.58,1.35-1.67-.19-5.07-.66-8.8.85-2.74,1.11-3.64,2.46-7.02,4.65-2.84,1.84-5.04,2.72-8.55,4.15-16.89,6.85-27.14,11.01-27,11.43.09.26,4.24-1.19,10.16-2.54,11.91-2.72,21.18-2.78,26.83-2.79,10.09-.01,15.23.03,19.64,2.71,3.36,2.04,6.07,5.04,9.82,12.36,7.64,14.95,12.18,23.81,10.16,35.55-3.17,18.4-23.47,30.02-23.44,30.05.01.01,3.56-3.64,7.18-7.18.83-.82,1.55-1.51,2.09-2.02.6-.52,1.43-1.37,2.09-2.61,0,0,1.28-2.42.98-5.74-.59-6.54-9.93-15.58-16.14-21.47-5.99-5.68-8.98-8.53-9.48-8.8-15.43-8.52-36.63,1.33-36.48,2.29.04.25,1.61.29,2.45.25,1.63-.08,2.82-.59,3.05-.68,2.74-1.11,14.18-1.7,18.37-.93,11.24,2.06,17.03,22.42,19.13,29.79,3,10.54,10.13,37.11-3.81,48.16-9.87,7.82-24.77,3.44-24.77,3.7,0,.26,16.46,1.97,19.35-4.2.76-1.62.45-3.49.42-3.64-.5-3.15-3.45-4.5-6.18-7.02-3.11-2.87-5.2-6.57-6.09-9.48-1.61-5.28,1.04-6.95.68-17.27-.21-6.15-1.23-7.8-2.2-8.8-2.35-2.43-6.22-2.94-9.14-2.2-4.15,1.06-6.53,4.69-7.19,5.67-6.04,8.94-20.54,21.34-30.3,26.91-11.37,6.49-21.32,6.59-38.09,15.91-.86.48-1.43.81-2.12,1.27-11.09,7.44-13.2,21.84-14.11,27.14-5.4,31.53-23.3,61.53-25.5,65.23-5.39,9.03-11.16,18.5-22.34,27.31-11.71,9.22-22.61,12.41-38.82,17.15-20.35,5.95-28.52,4.38-33.63,2.48-2.85-1.06-9.74-3.72-12.19-9.93-1.88-4.76-.32-9.54.45-11.74Z"/>
</svg>