<?xml version="1.0" encoding="UTF-8"?>
<svg id="Layer_1" data-name="Layer 1" xmlns="http://www.w3.org/2000/svg" viewBox="0 0 459.78 459.78">
  <defs>
    <style>
      .cls-1 {
        fill: #fff;
        stroke-width: 0px;
      }
    </style>
  </defs>
  <path class="cls-1" d="m86.71,317.39V106.98c1.36-.14,2.66-.31,3.97-.4,8.05-.58,16.11-.89,24.18-.65,24.4.72,47.68,6.06,69.63,16.87,11.89,5.85,22.88,13.1,33.03,21.61,2.47,2.07,3.74,4.66,3.73,7.97-.04,11.06.03,22.12.04,33.18.04,54.66.07,109.32.1,163.97,0,1.26-.18,2.52-.29,4.13-.73-.49-1.21-.78-1.65-1.11-11.51-8.5-23.78-15.7-36.92-21.38-13.24-5.72-26.97-9.75-41.2-12.14-10.24-1.72-20.55-2.58-30.93-2.64-7.64-.05-15.27.24-22.88,1-.21.02-.42,0-.81,0Zm238.41-209.81c-3.99.71-8,1.34-11.97,2.16-7.12,1.47-14.09,3.49-20.91,6-.56.21-1.15.59-1.5,1.06-1.72,2.31-3.35,4.69-5.05,7.03-1.05,1.44-1.87,2.95-2.33,4.7-.63,2.39-1.89,4.48-3.99,5.82-1.75,1.12-2.05,2.59-1.7,4.41.09.49.18.99.27,1.48l-.28.11c-.48-.75-.96-1.51-1.53-2.39-.78,2.22-.57,2.75,1.22,3.48,1.19.48,1.82,1.52,1.75,2.88-.06,1.34-.65,1.91-2,1.96-.36.01-.73,0-1.09,0-1.54,2.56-3.71,4.35-6.09,5.93-1.38.92-2.79,1.79-4.16,2.71-2.95,1.98-4.91,4.68-6.02,8.05-.73,2.23-1.47,4.47-2.45,6.6-.92,2.01-1.18,3.95-.53,6.05.14.45.21.94.24,1.42.1,1.34-.35,2.43-1.57,3.09-1.73.93-2.55,2.5-3.14,4.27-.39,1.19-.45,2.24.49,3.25.84.9.75,1.97.05,2.94-.81,1.13-1.63,2.25-2.53,3.31-1.36,1.58-2.79,3.1-4.18,4.65-1.21,1.34-1.94,2.91-2.3,4.68-.46,2.29-.17,4.48.82,6.56.67,1.41.73,2.76.13,4.17-.46,1.08-.97,2.15-1.35,3.25-.71,2.07-1.41,4.14-1.96,6.25-.4,1.53.19,2.72,1.41,3.44,1.14.67,2.3,1.32,3.48,2,1.26-.7,1.92-2.27,3.52-2.9.09,1.03.17,1.85.24,2.67.67.06,1.19.1,1.74.15v2c1.46-.18,2.13-.93,1.97-2.3,1.28-.76,2.46-1.5,3.67-2.18,4.98-2.79,9.44-6.23,13.44-10.3.6-.61,1.01-1.18.94-2.08-.14-1.97.41-3.82,1.34-5.53.66-1.22,1.42-2.39,2.15-3.57,1.21-1.95,1.95-4.03,1.79-6.37-.08-1.13.34-2.08,1-2.97,2.13-2.88,4.95-4.48,8.55-4.66,1.01-.05,2.03-.16,3.01-.38,1.62-.36,2.76-1.34,3.33-2.93.85-2.38.93-4.88,1.42-7.32-1.83-.37-3.47-.69-5.28-1.06.33-.7.56-1.17.76-1.64.38-.88.88-1.74,1.09-2.66.29-1.22.97-2.1,1.8-2.91.98.03,1.37.51,1.37,1.43,0,.78-.16,1.43-.69,2.06-.34.4-.63,1.08-.54,1.56.21,1.14.94,2.07,2.03,2.51,1.07.43,1.97-.09,2.71-.88,1.26-1.34,2.26-2.85,2.94-4.55.67-1.69,1.24-3.41,1.96-5.08.46-1.07.99-2.14,1.67-3.08,1.46-2.04,2.47-4.24,2.81-6.73.28-2.05.94-3.93,2.14-5.63.68-.96,1.36-1.92,1.95-2.93.64-1.1,1.3-2.22,1.74-3.4,1.06-2.85,2.01-5.74,2.96-8.63,1.59-4.82,3.14-9.64,4.71-14.46.57-1.75.69-3.48-.32-5.31.89-.59,1.76-1.15,2.66-1.75.78.97.96,1.75.62,2.82-.36,1.15-.58,2.41-.5,3.6.08,1.19.5,2.39.95,3.52.96,2.39.72,3.81-1.07,5.67-.4.41-.74.91-.99,1.43-.9,1.88-1.7,3.8-2.64,5.66-.49.97-.55,1.79-.11,2.84,1.27,3.03.8,5.02-1.68,7.15-1.13.97-2.41,1.76-3.65,2.59-2.54,1.71-2.68,2.26-.83,4.65.72.93,1.05,1.94.67,2.98-.31.87-.83,1.78-1.52,2.37-1.49,1.29-3.11,2.43-4.74,3.55-2.08,1.43-3.77,3.13-4.61,5.57-.6,1.76-1.26,3.51-1.88,5.26-.46,1.3-.6,2.55.25,3.82.68,1.01.55,1.7-.26,2.6-.36.39-.77.74-1.18,1.08-1.73,1.43-3.46,2.86-5.21,4.27-1.64,1.33-2.92,2.94-4,4.76-.84,1.42-1.76,2.81-2.8,4.09-1.63,2-3.72,3.39-6.3,3.84-1.61.28-2.41,1.12-2.68,2.71-.41,2.42-.98,4.8-2.08,7.04-.36.74-.49,1.65-.51,2.49-.06,2.98-.02,5.97-.02,8.9,1.6.51,1.29,1.66,1.37,2.8-.66,0-1.23-.02-1.8,0-.41.02-.93-.03-1.22.19-.86.67-1.68.49-2.54.1-1.5-.68-2.99-.69-4.46.08-1.7.9-3.49,1.65-5.07,2.72-5.22,3.54-9.3,8.16-12.44,13.6-1.63,2.81-2.61,5.89-2.86,9.1-.13,1.69-1.03,2.55-2.3,3.08-1.97.82-2.89,2.35-3.48,4.02.33.65.55,1.13.82,1.58.64,1.1,1.23,2.25,1.98,3.28,1.2,1.67,1.24,2,.05,3.67-1.59,2.21-3.14,4.45-4.75,6.65-.68.94-.98,1.92-.97,3.12.05,6.25,0,12.5.03,18.76.02,4.94.08,9.89.18,14.83.06,3.04.23,6.07.31,9.11.01.56-.2,1.12-.29,1.68-.08.46-.19.93-.19,1.4-.01,10.21,0,20.41,0,30.62,0,.35.07.69.13,1.24.6-.42,1.03-.71,1.45-1.02,9.51-7.04,19.55-13.21,30.19-18.4,3.21-1.56,6.42-3.12,9.64-4.65,2.5-1.19,4.05-3.21,5.06-5.68,1.12-2.75,2.18-5.53,3.19-8.33.68-1.86,1.85-3.37,3.36-4.55,3.31-2.57,6.31-5.45,9.12-8.53.81-.89,1.35-2.02,1.98-3.06.6-1,1.2-2,1.71-3.05,1.05-2.15,2.72-2.63,4.98-2.25,2.33.39,3.79-.62,4.99-2.64.83-1.39,1.93-2.62,2.87-3.85.62.22,1,.47,1.39.47,1.76-.02,3.59.16,5.28-.23,3.43-.78,6.79-1.93,8.68-5.26.97-1.7,2.36-3.26,2.56-5.3.13-1.3.73-2.29,1.38-3.33.9-1.44,1.76-2.92,2.49-4.46.54-1.14.65-2.51,1.29-3.57,1.65-2.7,2.21-5.63,1.92-8.67-.17-1.8.2-3.32.99-4.85.71-1.37.75-2.79.01-4.15-.78-1.44-.81-2.89-.11-4.31,1.33-2.73,2.55-5.55,4.17-8.1,2.77-4.37,5.8-8.59,8.75-12.85,1.17-1.68,2.58-3.16,4.41-4.12,1.82-.97,3.35-2.27,4.79-3.72.9-.91,1.8-1.84,2.81-2.62.78-.61,1.68-1.13,2.61-1.5,2.25-.9,2.74-1.52,2.74-3.91,0-13.41,0-26.83,0-40.24,0-19.51,0-39.01,0-58.52,0-.62,0-1.24,0-1.92-.85-.08-1.48-.15-2.12-.19-5.02-.25-10.03-.56-15.05-.71-8.23-.24-16.45.04-24.65.88-1.25.13-2.16.29-2.64,1.72-.5,1.49-1.69,1.9-3.21,1.45.24-.8.49-1.6.76-2.49-.51.04-.93.03-1.34.1Zm-16.09,133.42c.3-.41.63-.88.98-1.33.87-1.13.88-1.48-.22-2.36-.78-.62-1.69-1.08-2.66-1.69.09-2.61.18-5.3.29-8.29.59.41,1.11.65,1.48,1.04.7.73,1.38,1.49,1.96,2.32,1.64,2.37,3.24,4.77,4.84,7.16.42.62.8,1.26.65,2.08-.13.68.32.96.89,1.1,2.25.53,1.62,1.25,1.13,2.72-.09.28-.39.5-.6.74-1.31,1.48-2.64,2.93-3.92,4.43-1.32,1.54-3.68,1.34-4.61-.45-.25-.47-.41-.99-.69-1.44-.55-.87-.52-1.62.12-2.48.58-.78.35-1.8-.48-2.26-.76-.41-.98-.89-.63-1.76.44.14.88.28,1.47.48Zm56.26-89.39c-.38,1.11-.75,2.23-1.22,3.3-1.81,4.09-5.01,6.36-9.57,7.18-.09-.73-.24-1.39-.23-2.04.12-4.55,1.82-8.39,5.3-11.39,3.07-2.64,6.7-4.06,10.67-4.77-2.65,1.98-3.92,4.77-4.95,7.73Zm-87.36,118.64c-.04-.65-.1-1.05-.1-1.45.01-1.7,0-3.4-.49-5.06-.15-.51-.14-1.01.37-1.44.28-.24.41-.7.53-1.09.2-.65.9-1.42,1.76-1.8,1.1-.49,1.48-1.73.86-2.76-.08-.14-.19-.26-.27-.39-.37-.63-1.1-1.32-1.02-1.88.13-.88.71-1.77,1.3-2.49.98-1.2,3.63-2.9,5.35-3.65.68.65,1.44,1.3,2.1,2.04.19.22.17.71.1,1.05-.38,1.82-.8,3.63-1.2,5.45-.17.78-.72,1.14-1.42,1.35-2.63.81-4.77,3.65-4.77,6.41,0,.94-.42,2.07,1.13,2.54-1.47,1.11-2.77,2.08-4.24,3.19Zm-19.8,30.21c1.31-.27,1.66-.71,1.1-1.85-.46-.93-.36-1.72-.04-2.57.33-.88.67-1.76,1.04-2.73,1.26.7,1.78,1.76,2.19,2.82.91,2.36,1.38,4.8,1.03,7.35-.16,1.18-.3,2.37-1.7,2.8-.13.04-.23.21-.34.32-1.02.96-1.49,1.04-2.66.41-.37-.2-.71-.46-1.06-.69-.32.13-.62.26-1.09.46.24-2.15.45-4.13.68-6.18.26-.04.56-.07.86-.14Zm97.09-118.28c.44-1.76,1.66-2.97,3.22-3.77,1.05-.53,1.96,0,2.72.77.79.79,1.31,1.69.91,2.87-.57,1.65-2.69,3.13-4.47,3.12-1.71-.01-2.8-1.32-2.38-2.99Zm-8.71-27.66c-.84-.05-1.5-.49-1.95-1.22-.45-.73-.13-1.39.34-1.89.72-.77,1.46-1.58,2.35-2.1,1.27-.73,2.78.34,2.76,1.81-.01,1.48-2.05,3.49-3.5,3.4Zm7.56-23.96c-1.25.32-2.39-.49-2.49-1.78-.12-1.49,1.25-3.43,2.69-3.78,1.27-.31,2.46.79,2.43,2.25-.03,1.38-1.28,2.96-2.62,3.31Zm13.31,42.37c.45-1.31,1.4-2.27,2.64-2.82,1.21-.54,2.56.75,2.32,2.13-.31,1.81-1.44,2.76-3.38,2.82-1.2.04-1.99-.94-1.58-2.12Zm-38.73,41.43c1.34-.73,2.69-1.55,4.11-2.24.9-.44,1.92.45,1.83,1.49-.13,1.43-1.32,2.7-2.78,2.88-.95.12-1.91.11-2.91-.51-.08-.5-.15-.96-.25-1.62Zm37.46-10.2c-1.36-2.3.68-5.34,3.96-5.92.4,2.6-1.13,4.89-3.96,5.92Zm-7.84-4.17c.16-1.03.16-1.9.45-2.65.21-.54.72-1.08,1.24-1.34,1.06-.54,2.06.16,2.05,1.35,0,.68-.12,1.37-.21,2.19-1.12.14-2.2.28-3.53.45Zm-49.32-71.51c.03-.86.66-1.03,1.3-1.05.23,0,.69.43.67.61-.09.77-.21,1.58-.55,2.27-.16.34-.82.43-1.59.8.08-1.19.14-1.91.17-2.64Zm-252.54,1.5v210.31c38.2-4.54,76.27-5.31,114.33.43-1.1-1.06-2.41-1.63-3.78-2.08-3.4-1.11-6.79-2.25-10.23-3.21-14.71-4.11-29.76-5.65-44.98-5.72-9.14-.04-18.25.63-27.35,1.37-2.27.19-4.58.1-6.86-.09-2.08-.17-3.34-1.53-3.88-3.53-.15-.56-.31-1.14-.34-1.72-.15-2.88-.35-5.76-.35-8.64-.02-61.01-.01-122.03-.03-183.04,0-2.02-.19-4.04-.3-6.3-5.57.76-10.89,1.49-16.23,2.22Zm330.74.02c0,22.28,0,44.57,0,66.85,0,40.99,0,81.97-.03,122.96,0,2.28-.21,4.6-.61,6.85-.53,2.99-2.26,4.45-5.31,4.61-2.07.11-4.16.02-6.24-.11-6.77-.44-13.52-1.08-20.3-1.38-7.91-.34-15.81.05-23.69.8-6.33.61-12.65,1.35-18.83,2.86-7.3,1.79-14.54,3.85-21.81,5.8-.15.04-.29.14-.46.23,1.53,0,2.97.07,4.4-.01,6.13-.35,12.26-.75,18.4-1.11,6.83-.4,13.65-.88,20.48-1.15,6.35-.24,12.71-.44,19.07-.31,8.7.19,17.4.66,26.1,1.09,6.51.32,13.01.8,19.52,1.15,1.8.1,3.61.01,5.51.01v-209.35c-5.37-.65-10.66-1.29-16.21-1.96v2.15Zm-69.13,180.48c.14.81-.14,1.33-.93,1.6-1.53.54-2.12,1.69-2.02,3.25.08,1.37-.5,2.48-1.39,3.47-.33.37-.68.72-1.24,1.31.74-.1,1.1-.13,1.46-.2,7.33-1.49,14.74-2.46,22.2-3.02,7.57-.56,15.15-.78,22.74-.41,1.11.05,1.98-.16,2.86-.96,1.76-1.58,3.01-1.57,5-.33.07.05.2,0,.31,0,1.59-2.14,3.29-4.15,6.29-4.45v-94.9c-.34.1-.59.15-.82.25-2.48,1-4.37,2.7-5.59,5.05-1.84,3.52-4.57,5.84-8.48,6.73-1.93.44-3.34,1.63-4.28,3.36-2.12,3.95-4.24,7.9-6.32,11.88-.28.54-.36,1.21-.42,1.83-.06.64.36.94.98,1.03,1.28.19,1.95-.2,2.23-1.47.2-.94.25-1.9.41-2.85.05-.32.22-.62.36-1.02,1.97,1.62,1.08,3.78,1.38,5.57,1.97,1,3.13.85,4.47-.38,1.49-1.36.77-2.64-.27-4,1.14-.49,2.08-1.01,3.09-1.31,2.18-.66,3.86-1.93,5.27-3.71,1.02-1.29,2.23-2.45,3.4-3.61.89-.88,1.49-.89,2.22-.24.78.7.84,1.42.06,2.39-.5.62-1.09,1.17-1.7,1.68-1.03.86-1.76,1.92-1.89,3.24-.1,1.05,0,2.13.13,3.18.23,1.8.64,3.57.83,5.37.19,1.83-.67,3.2-2.29,4.06-.61.32-1.26.56-1.9.82-.08.03-.2-.03-.33-.05-.2-.32-.42-.65-.72-1.12-.24.32-.49.5-.51.71-.12,1.06-.87,1.26-1.72,1.3-.58.03-1.17-.03-1.76-.05-.96-.02-1.92-.08-2.88-.05-1.21.05-2.12.62-2.69,1.72-.54,1.04-1.2,2.03-1.66,3.1-.52,1.22-1.12,2.48-1.24,3.76-.13,1.46-.68,2.39-1.93,3.03-1.02.52-1.53,1.48-1.86,2.51-.39,1.19-.14,1.67,1.05,2.04.95.3,1.93.5,3.08.79-.87,1.05-1.65,1.98-2.41,2.93-.68.85-1.52,1.29-2.64,1.17-.41-.05-.83.06-1.2.09-.17.32-.33.55-.42.8-1.28,3.97-3.96,6.88-7.06,9.51-3.3,2.8-6.52,5.69-9.77,8.55-.96.85-1.91,1.71-2.84,2.6-1.07,1.02-1.35,2.26-.93,3.67.14.46.37.89.52,1.34.34,1.01.3,1.97-.25,2.93-.48.82-.85,1.7-1.29,2.55-.3.57-.62,1.12-.96,1.66-.42.66-.94.95-1.76.57-.56-.26-1.2-.33-1.98-.53,0,.63-.05.95,0,1.26Zm-73.96-127.37c-1.5-.99-2.09-2.18-.48-4.17.49-.61,1.37-1.01,2.15-1.26.62-.2,1.37-.09,2.04,0,1.04.15,1.81-.04,2.5-.95,1.12-1.46,2-3,2.58-4.75,2.26-6.74,4.96-13.3,8.36-19.56,1.02-1.88,2.33-3.49,3.76-5.1,3.32-3.75,6.35-7.76,9.43-11.72,1.01-1.3,1.19-2.85.58-4.41-.71-1.79-.19-3.19,1.2-4.43,1.85-1.65,3.11-3.72,4.29-6.19-1.36.46-2.31.85-2.95,2.02-1.39,2.51-3.12,3.08-5.4,2.02-.1.03-.21.04-.3.09-.43.21-.86.43-1.28.66-9.73,5.2-18.83,11.35-27.45,18.23-3.22,2.56-4.68,5.79-4.66,9.87.06,15.65.05,31.31.07,46.96,0,.56,0,1.12,0,1.68.14.02.27.04.41.06.72-1.38.65-3,1.08-4.47.47-1.58.83-3.2,1.32-4.78.48-1.53,1.03-3.03,1.62-4.52.61-1.53,1.31-3.03,2.04-4.69-.37-.24-.63-.41-.9-.58Zm22.92-46.82c-.63.11-1.2.27-1.76.28-1.01.02-1.62-.95-1.2-1.88.56-1.24,1.65-1.5,2.96-1.51v3.1Zm-27.97,115.22c1.18-1.95,2.42-3.87,3.52-5.86.66-1.19.82-2.53.55-3.89-.2-.99-.37-2-.7-2.95-.98-2.82-2.04-5.61-3.08-8.41-.1-.26-.31-.47-.69-1.02v22c.13.05.27.09.4.14Zm62.74,67.14c1.01.03,2.69-1.38,2.75-2.31.07-1.13-1.01-2.32-2.13-2.36-1.4-.04-2.8,1.09-2.83,2.3-.03,1.07,1.16,2.34,2.21,2.37Zm42.58-53.55c.36.44.61.74.93,1.12.56-.59,1.05-1.1,1.6-1.67-.26-.29-.49-.55-.82-.92-.64.55-1.14.98-1.7,1.47Zm1.11,5.04c-.44.42-.88.65-.87.87.02.6.23,1.2.38,1.86.44-.14.73-.23,1.17-.37-.24-.81-.42-1.44-.68-2.35Z"/>
</svg>