<?xml version="1.0" encoding="UTF-8"?>
<svg id="Layer_1" data-name="Layer 1" xmlns="http://www.w3.org/2000/svg" viewBox="0 0 459.78 459.79">
  <defs>
    <style>
      .cls-1 {
        fill: #fff;
        stroke-width: 0px;
      }
    </style>
  </defs>
  <path class="cls-1" d="m84.15,324.91v52.32c9.34-.23,71.53-2.85,114.28-55.21,27.45-33.63,32.77-70.47,33.53-90.4-.25-5.77-.11-9.94-.02-11.85-.01-.37-.02-.77-.03-1.18-.41-12.58-3.75-57.17-39.71-93.98-43.47-44.5-100.2-42.36-108.91-41.89v85.92l-30.07,78.19c-4.56,13.53,30.93,22.82,30.93,22.82v32.86c9.03,1.29,23.23,2.21,40.03-1.35,16.71-3.55,29.26-10.11,36.98-14.93-1.98,4.65-11.17,24.79-34.37,35.02-19.41,8.56-36.98,5.04-42.64,3.65Zm63.62-176c-10.52,13.92-33.66,13.92-44.15-.06-.4-.5-.37-.86,0-1.36,5.42-6.84,12.81-10.24,21.94-10.52,9.41.28,16.8,3.68,22.19,10.46.4.53.43.91.03,1.47Zm229.81,156.59v-33.75s34.37-11.6,28.78-24.92l-27.5-75.18v-88.93c-5.8-.38-79.67-3.93-122.01,53.7-24.06,32.75-25.3,68.05-24.95,82.16.01.43.03.83.03,1.18.11,2.53.22,6.62.02,11.85.95,22.19,7.77,68.48,46.38,105.01,39.75,37.6,87.24,40.28,99.24,40.6v-55.26c-9.42-1.42-29.49-2.97-49.39,7.89-5.31,2.9-9.72,6.19-13.3,9.39,1.81-7.86,6.57-22.45,18.98-28.93,7.72-4.03,17.31-4.34,32.42-4.82,4.77-.15,8.7-.08,11.31,0Zm-43.53-135.39c-7.81-.4-14.21-3.94-17.13-6.86-.16-.16-.24-.4-.26-.43-1.99-3.65.86-7.59,1.84-8.96.71-.99,1.07-1.48,1.46-1.75,0,0,5.74-3.85,30.26,7.14.06.03.76.34,1.72.76.5.22,2.95,1.26,4.11,2.29.18.16.25.39.28.49.5,1.6-10.07,7.94-22.28,7.31Z"/>
  <path class="cls-1" d="m84.15,324.91v52.32c9.34-.23,71.53-2.85,114.28-55.21,27.45-33.63,32.77-70.47,33.53-90.4-.25-5.77-.11-9.94-.02-11.85-.01-.37-.02-.77-.03-1.18-.41-12.58-3.75-57.17-39.71-93.98-43.47-44.5-100.2-42.36-108.91-41.89v85.92l-30.07,78.19c-4.56,13.53,30.93,22.82,30.93,22.82v32.86c9.03,1.29,23.23,2.21,40.03-1.35,16.71-3.55,29.26-10.11,36.98-14.93-1.98,4.65-11.17,24.79-34.37,35.02-19.41,8.56-36.98,5.04-42.64,3.65Zm63.62-176c-10.52,13.92-33.66,13.92-44.15-.06-.4-.5-.37-.86,0-1.36,5.42-6.84,12.81-10.24,21.94-10.52,9.41.28,16.8,3.68,22.19,10.46.4.53.43.91.03,1.47Z"/>
  <path class="cls-1" d="m377.58,305.5v-33.75s34.37-11.6,28.78-24.92l-27.5-75.18v-88.93c-5.8-.38-79.67-3.93-122.01,53.7-24.06,32.75-25.3,68.05-24.95,82.16.01.43.03.83.03,1.18.11,2.53.22,6.62.02,11.85.95,22.19,7.77,68.48,46.38,105.01,39.75,37.6,87.24,40.28,99.24,40.6v-55.26c-9.42-1.42-29.49-2.97-49.39,7.89-5.31,2.9-9.72,6.19-13.3,9.39,1.81-7.86,6.57-22.45,18.98-28.93,7.72-4.03,17.31-4.34,32.42-4.82,4.77-.15,8.7-.08,11.31,0Zm-43.53-135.39c-7.81-.4-14.21-3.94-17.13-6.86-.16-.16-.24-.4-.26-.43-1.99-3.65.86-7.59,1.84-8.96.71-.99,1.07-1.48,1.46-1.75,0,0,5.74-3.85,30.26,7.14.06.03.76.34,1.72.76.5.22,2.95,1.26,4.11,2.29.18.16.25.39.28.49.5,1.6-10.07,7.94-22.28,7.31Z"/>
</svg>