<?xml version="1.0" encoding="UTF-8"?>
<svg id="Layer_1" data-name="Layer 1" xmlns="http://www.w3.org/2000/svg" viewBox="0 0 459.79 459.79">
  <defs>
    <style>
      .cls-1 {
        fill: #fff;
        stroke-width: 0px;
      }
    </style>
  </defs>
  <path class="cls-1" d="m417.35,335.83v28.1H42.3v-28.1h375.05Zm-375.09-26.81v13.95h375.27v-13.95H42.26ZM379.11,101.89c-.28-.02-.56-.02-.84-.04-5.94,64.69-11.87,129.39-17.83,194.34h36.49c-5.97-65.06-11.89-129.68-17.81-194.3Zm-99.32-1.36c-.2,0-.4,0-.59,0-5.98,65.15-11.95,130.3-17.94,195.61h36.46c-6-65.41-11.96-130.51-17.93-195.6Zm-99.2.08c-.2.02-.4.03-.61.05-5.96,65.07-11.93,130.14-17.92,195.49h36.47c-6.01-65.47-11.98-130.5-17.95-195.54Zm-99.12.86c-.25.02-.51.05-.77.06-5.93,64.79-11.87,129.56-17.83,194.6h36.47c-5.98-65.1-11.93-129.88-17.88-194.66Z"/>
</svg>