<?xml version="1.0" encoding="UTF-8"?>
<svg id="Layer_1" data-name="Layer 1" xmlns="http://www.w3.org/2000/svg" viewBox="0 0 459.79 459.79">
  <defs>
    <style>
      .cls-1 {
        fill: #fff;
      }
    </style>
  </defs>
  <path class="cls-1" d="m230.48,276.12c1.16-5.11,2.35-10.21,3.47-15.33.15-.7.15-1.52-.08-2.21-6.06-18.31-1.65-35.59,6.08-52.47,1.13-2.46.92-4.21-.3-6.6-4.85-9.51-3.72-19.55-2.14-29.53.17-1.04,1.19-2.29,2.2-2.83,4.62-2.5,4-4.93.94-8.44-3.34-3.83-3.35-8.44-1.83-13.26.85-2.69,1.09-5.85.49-8.59-2.65-12.18-2.77-24.17-1.08-36.6,1.28-9.45-.11-19.46-1.9-28.96-2.78-14.73,4.06-23.67,20.2-23.26,10.86.28,21.83,1.14,32.46,3.13,5.16.96,9.82,4.85,14.38,7.85,8.12,5.35,15.98,11.03,23.95,16.57,7.87,5.48,14.67,11.7,16.75,21.19.13.58.19,1.34.61,1.69,7.94,6.66,9.47,16.5,14.17,24.76.6,1.05,1.23,2.13,2.04,3.04,7.55,8.49,8.78,18.35,7.47,28.87-.21,1.71.03,4.02,1.12,5.23,8.49,9.49,12.05,20.71,13.56,32.66,2.04,16.1,1.51,32.04-3.64,47.68-.41,1.24-.19,3.26.66,4.16,9.36,9.9,9.54,21.21,7.16,33.45-2.86,14.74-6.47,29.09-15.94,41.51-4.56,5.98-10.35,10.59-17.98,13.01-1.17.37-2.75,1.87-2.75,2.85.01,10.44-5.06,18.94-12.18,26.23-6.33,6.48-13.69,12.08-20.56,18.1-.9.79-1.75,1.72-2.34,2.74-8.19,14.1-21.32,21.53-37.75,24.57-1.69.31-3.52.68-4.94,1.54-10.26,6.22-22.86,3.37-28.54-6.86-1.67-3-2.36-6.48-3.48-9.74-.34-.98-.35-2.16-.96-2.95-5.16-6.63-5.2-13.88-3.54-21.53.39-1.8-.66-3.85-.89-5.81-.34-2.86-.63-5.73-.76-8.61-.1-2.22.16-4.46.11-6.68-.15-6.23-1.12-12.53-.39-18.66,1-8.47,1.65-16.68-1.87-24.8-1-2.31-1.21-4.92-2.24-7.44-2.33,8.46-6.44,16.47-4.79,25.73,1.15,6.47,1.25,13.11,1.59,19.69.09,1.74-.86,3.5-.98,5.27-.14,2.06.23,4.16.14,6.23-.13,2.99-.43,5.97-.75,8.95-.2,1.93-1.22,4.01-.73,5.75,2.1,7.51,1.56,14.49-3.12,21.12-.99,1.4-1.18,3.36-1.48,5.1-2,11.67-12,19.32-23.94,18.18-1.4-.13-2.81-.56-4.14-1.02-4.41-1.53-8.69-3.48-13.2-4.64-14.26-3.67-25.64-10.74-32.9-23.1-.73-1.25-1.86-2.48-3.14-3.23-11.22-6.65-20.03-15.61-26.6-26.18-3.09-4.98-3.81-11.23-5.8-16.84-.47-1.31-1.48-3.07-2.68-3.45-12.75-4.06-19.91-13.26-25.32-23.95-6.68-13.19-9.35-27.38-10.98-41.74-.84-7.36,1.78-13.98,6.64-19.68,2.57-3.02,2.68-5.68,1.64-9.43-6.15-22.27-6.67-44.55,2.55-66.28,2.08-4.91,7.26-8.83,8.65-13.78,1.4-4.97-.88-10.74-.19-16,.56-4.31,2.86-8.5,4.86-12.55,2.81-5.69,5.95-11.23,9.13-16.75,2.56-4.43,5.39-8.73,8.09-13.09.56-.9,1.37-1.75,1.58-2.72,2.16-9.98,9.2-16.5,17.55-22.23,8.91-6.12,17.65-12.45,26.43-18.73,4.92-3.52,9.98-5.97,16.59-6.11,7-.15,13.94-2.27,20.95-2.57,5.48-.24,11.3.17,16.48,1.74,8.16,2.47,12.31,10.27,10.18,18.14-3.64,13.49-3.2,26.77-1.23,40.55,1.39,9.7-1.32,19.9-2.1,29.89-.14,1.85-.27,3.89.4,5.56,2.37,5.98,2.14,11.48-2.53,16.42-1.88,1.99-1.46,3.29.46,5.28,2.22,2.3,4.73,5.29,4.99,8.16.83,9.19,2.04,18.59-3.45,27.23-.71,1.12-.04,3.42.68,4.88,5.86,11.9,8.96,24.4,8.99,37.47,0,4.44-1.33,8.87-1.91,13.33-.24,1.85-.45,3.79-.13,5.61.86,4.8,2.02,9.56,3.06,14.33l.7-.16Zm52.22,55.99c.2.32.39.65.59.97-3.24,2.1-6.36,4.38-9.73,6.28-7.83,4.41-15.9,8.44-23.63,13-6.07,3.58-5.93,7.26.58,10.15,4.19,1.86,9.01,3.13,13.62,3.35,6.15.29,12.38-.7,18.57-1.14.13.5.27,1,.4,1.5-7.28,1.98-14.47,4.43-21.89,5.74-3.93.69-5.73,2.01-6.15,5.45-.13,1.04-.21,2.09-.31,3.14-1.78-2.98-2.2-6.15-3.5-8.97-.69-1.5-2.83-2.49-4.5-3.43-.29-.17-1.95.93-2.19,1.67-1.67,5.09-1.51,9.97,1.9,14.61,1.33,1.81,2.37,4.09,2.62,6.26.82,7.12,5.1,12.58,11.78,13.63,1.8.29,4.33-.26,5.61-1.36.87-.74.4-3.16.07-4.75-.49-2.34-1.62-4.56-2.09-6.9-1.49-7.37,1.1-10.13,9.1-10.08,1.92.01,3.83-.29,5.75-.4,3.73-.2,7.46-.37,11.19-.55-6.16,4.73-13,6.6-21.07,6.04,0,4.12-.16,7.94.14,11.73.06.73,1.95,2.01,2.86,1.91,13.33-1.4,24.62-6.45,32.76-16.73.85-1.07,1.22-2.67,1.27-4.03.09-2.55-.73-5.18-.28-7.64.92-5.01,2.35-9.94,3.72-14.87.9-3.23.05-4.27-3.74-3.98-4.6.35-9.28.02-13.91-.23-6.88-.37-13.74-.92-21.53-1.46,2.74-1.21,4.85-2.71,7.18-3.07,7.26-1.13,14.58-2.45,21.9-2.55,12.45-.17,21.48-4.83,27.45-15.08,1.95-3.36,2.12-5.74-.99-8.68-3.32-3.14-5.86-7.01-8.75-10.56.4-.3.81-.61,1.21-.91.79.47,1.54.99,2.37,1.39,7.77,3.82,16.23-.66,16.08-8.74-.08-4.42,2.69-6.9,5.84-9.25,4.89-3.64,8.47-8,10.51-13.65,2.51-6.95,5.34-8.67,13.33-8.38,4.07.15,8.11,1,12.14,1.54,3.35-10.23-.2-18.34-8.09-25.67-1.58,2.11-3.07,4.11-4.56,6.1.11-2.63.54-5.15,1.42-7.51,3.25-8.76,7.19-17.27,7.7-26.79.86-16.03.61-31.83-7.31-46.61-.85-1.58-2.16-2.95-2.88-3.91-2.77,6.15-5.17,12.14-8.12,17.88-3.07,5.98-2.61,8.29,3.33,12.01,3.26,2.04,6.43,4.21,9.65,6.32-3.87.07-7.2-.75-10.5-1.66-10.05-2.76-19.54-4.16-29.01,2.72-4.93,3.58-11.8,4.81-17.75,7.09,1.93,2.56,3.86,5.12,6.33,8.4-5.29-1.66-9.33-3.05-13.46-4.19-3.04-.84-5.62-.39-8.41,1.68-4.36,3.24-9.55,5.49-14.05,8.58-2.12,1.45-4.21,3.71-4.85,5.97-.34,1.21,2.22,3.37,3.8,4.79,4.24,3.8,9.02,7.14,12.88,11.24,2.47,2.62,2.71,6.19.11,8.68-2.08-2.12-3.65-4.4-5.84-5.84-7.61-4.98-15.77-9.23-21.31-16.62-.72-.95-4.55-1.15-5.75-.27-4.24,3.12-8.63,6.4-11.76,10.44-12.24,15.77-11.51,33.79-8.91,51.85,1.08,7.51,4.04,8.57,11.25,5.06,4.83-2.35,9.39-5.22,14.33-7.34,2.48-1.07,5.53-1,8.3-1.45-3.97,2.35-7.73,4.13-10.93,6.56-5.83,4.42-10.87,9.87-19.09,10.6-.75.07-1.78,1.9-1.88,2.98-.72,7.31-1.45,14.64-1.7,21.97-.12,3.38.85,6.79,1.29,9.99,13.88-4.93,26.69-9.47,39.5-14.01Zm-97.05-38.82c3.57.92,6.54,1.31,9.14,2.45,4.2,1.84,8.08,4.3,12.21,6.29,7.95,3.84,10.41,2.96,11.86-5.15,2.5-13.95,2.03-27.93-3.19-41.28-3.29-8.42-9.14-15.48-17.51-20.35-2.31-1.34-4.88-2.37-6.77.37-4.97,7.21-12.8,11.19-19.9,16.06-2.51,1.72-4.41,4.21-6.56,6.32-2.49-2.84-3.13-5.26,0-8.69,3.9-4.26,8.57-7.99,13.31-11.47,4.71-3.47,4.48-7.55-.84-10.33-5.3-2.77-10.29-6.06-15.62-8.78-2.04-1.04-4.79-1.89-6.93-1.49-4.56.84-8.93,2.56-14.54,4.28,2.62-3.42,4.6-6.01,6.23-8.13-7.63-3.23-15.39-5.8-22.29-9.69-4.25-2.4-8.08-3.35-12.62-2.42-7.13,1.46-14.21,3.1-21.32,4.66,2.78-3.02,6.11-5.24,9.47-7.42,3.23-2.1,5.81-4.46,3.89-8.58-3.26-7-6.55-13.99-9.81-20.94.26-.15-.1-.06-.25.16-.7,1-1.47,1.99-1.98,3.07-10.65,22.68-10.7,45.57-1.59,68.68,1.69,4.28,2.98,8.7,4.45,13.05-.28.05-.56.1-.84.15-1.51-2.02-3.02-4.05-4.71-6.32-5.94,6.48-10.85,12.81-8.5,21.39.45,1.65,2.96,4.06,4.46,4.02,12.7-.32,20.85,6.32,28.19,14.82,3.48,4.04,7.62,7.58,11.04,10.94-4.59,1.17-4.72,1.46-1.61,6.4,5,7.93,8.88,9.07,19.77,5.99-2.35,3.76-5.31,7.1-7.93,10.67-1.16,1.58-2.81,3.99-2.27,5.34,2.79,7.02,11.65,17.08,21.98,17.39,9.27.28,18.53,1.44,27.72,2.68,2.88.39,5.53,2.28,8.28,3.49-5.44.79-10.36.67-15.27.81-7.03.2-14.05.77-21.08.81-3.81.02-3.25,1.79-2.74,4.07,1.73,7.81,6.91,15.2,3.36,23.69-.17.41.38,1.11.66,1.64,5.24,9.78,24.41,18.85,36.9,17.18.22-2.56.53-5.22.67-7.89.19-3.69-.91-5.78-5.73-5.42-6.32.47-11.84-2.06-17.34-5.14,7.77,0,14.98-.23,22.14.17,1.64.09,4.41,2.32,4.48,3.66.21,4.23-.6,8.52-1.04,12.78-.18,1.78-1.09,4.85-.54,5.09,2.14.93,4.87,1.64,7.11,1.21,6.03-1.17,9.99-6.78,10.54-13.58.14-1.69.32-3.79,1.41-4.91,3.74-3.83,4.53-8.22,3.43-12.97-.37-1.61-1.84-3-2.8-4.49-1.58,1.45-3.75,2.65-4.6,4.41-1.33,2.74-1.78,5.86-2.6,8.83-1.32-7.89-1.4-7.56-9.51-9.34-6.57-1.44-12.92-3.8-19.36-5.75.14-.5.29-.99.43-1.49,1.99.22,3.97.55,5.97.63,8.72.36,17.57,2.39,25.79-2.49,6.51-3.86,6.79-6.99.18-10.89-5.28-3.12-10.94-5.67-16.32-8.66-5.58-3.1-11.02-6.41-16.52-9.63.23-.4.45-.79.68-1.19,12.83,4.43,25.66,8.85,39.01,13.46,4.06-11.65-1.82-22.98-.58-34.29-8.68-1.75-12.03-3.61-19.42-9.69-3.3-2.72-7.05-4.98-11.72-8.23Zm9.27-214.48c-.65-2.75-.67-5.99-2.17-8.43-2.22-3.59-5.38-6.72-8.35-9.86-5.65-5.98-11.39-6.36-17.97-1.14-4.53,3.59-8.6,7.7-13.27,11.11-3.05,2.23-3.48,4.44-2.7,7.75,3.23,13.72.74,17.97-13.1,23.21-1.48.56-3.02,1-4.56,1.41-7.82,2.08-8.63,3.62-5.72,11.86,7-1.08,14.09-2.18,21.18-3.28-4.49,3.01-9.29,5.37-14.32,7.11-9.56,3.31-14.54,10.72-14.22,19,.27,6.94-.26,13-2.35,19.63-1.71,5.43-.35,11.7-.35,18.08-2.32-5.71-4.59-11.3-6.81-16.79-5.07.81-9.46,2.08-9.47,7.85-.02,7.99,3.02,15.22,8.3,21.11,3.03,3.38,8.18,5.09,12.38,7.55.44-.56.89-1.12,1.33-1.68-1.15-.45-2.3-.9-3.45-1.35.19-.43.37-.86.56-1.29,3.74-1.13,7.49-2.26,11.23-3.4-4.84,5.65-4.44,8.76,1.81,12.46,2.71,1.6,5.42,3.22,8.2,4.71,3.04,1.63,6.15,3.14,10.38,5.28-1.78-3.91-3.17-6.3-3.96-8.85-2.18-7.07-1.27-14.02,1.96-20.63,5.02-10.27,6.97-20.55,1.22-31.18-.78-1.44-1.32-3.14-1.39-4.75-.28-6.4-5.11-9.26-10.25-11.93-.91-.47-1.97-.69-2.96-1.03.11-.36.21-.71.32-1.07,4.42.94,8.84,1.87,12.74,2.7,3.12-3.05,5.85-6.18,9.08-8.79,7.76-6.27,10.31-16.19,5.72-24.77-2.84-5.3-2.28-10.11,1.36-14.77,3.05-3.91,6.15-7.79,9.22-11.68-.97,3.32-2.19,6.6-4.28,9.31-5.3,6.86-5.11,13.17,1.5,19.42,4.97-2.53,10.41-4.46,13.61-9.78,2.64-4.4,7.13-4.72,11.95-.76-5.08-2.23-7.34-.59-9.42,2.81-2.17,3.53-4.92,6.91-8.08,9.69-3.24,2.85-5.55,5.77-7.19,9.76-2.26,5.48-5.05,11.19-9.17,15.5-6.78,7.07-7.79,10.59-4.24,19.73,1.98,5.09,3.59,10.86,3.04,16.11-.7,6.71-3.13,13.44-5.92,19.73-4.03,9.07-2.94,17.15,3.85,24.28,4.45,4.67,9.49,8.96,14.79,12.79,6.79,4.9,14.15,8.92,22.13,2.84.71,2.41.61,5.29,2.09,6.57,6.74,5.81,13.92,11.17,20.88,16.63,2.25-9.54-3.64-35.62-10.56-42.67-3.37-3.43-7.94-6.21-12.53-8.08-3.05-1.24-7.47-1.5-10.17,1.82-2.22,2.73-4.08,5.71-7.01,9.88.82-7.96,1.04-14.91,2.43-21.66.8-3.9.44-7-1.81-10.15-1.07-1.49-1.94-3.12-3.02-4.6-3.61-4.94-3.57-10.14-1.23-15.44,1.28-2.91,2.66-5.8,4.28-8.55,1.84-3.13,2.04-5.87-.85-8.55-2.19-2.02-4.21-4.2-6.65-6.66,1.98,0,3.48.27,4.81-.07,1.54-.4,3.66-.98,4.25-2.08,3.85-7.18,10.84-11.04,17.56-15.28-2.73,3.86-5.88,7.37-8.78,11.06-3.38,4.29-4.78,8.69-2.63,14.28,1.16,3.02.04,6.98-.66,10.4-.54,2.6-1.99,5.05-3.15,7.52-1.66,3.56-1.07,6.7.67,10.27,2.96,6.08,4.96,12.57,7.57,18.81.57,1.36,1.75,2.99,3.08,3.49,4.31,1.6,8.84,2.69,13.25,4.07,2.88.9,4.57-.25,4.71-2.78.34-6.11.43-12.25.4-18.37,0-1.01-.92-2.2-1.75-2.99-6.89-6.56-7.01-9.03-1.48-16.73,1.2-1.67,2.17-4.39,1.59-6.13-2.25-6.7-4.37-13.76-12.91-16.2-.61-.17-1.08-.75-2.64-1.89,5.63,1.26,9.96,2.23,14.91,3.35,3.64-19.91,2.21-38.71-7.93-56.49,2.28,1.49,4.59,2.99,7.3,4.75.92-4.73,1.34-9.07,2.65-13.17,3.36-10.47-6.46-17.12-16.62-14.4-6.55,1.75-7.39,3.61-4.02,9.18,1.26,2.08,2.57,4.19,3.4,6.43,1.28,3.48.81,6.78-1.6,8.84Zm66.5,145.38c7.31,5.62,14.21,3.74,20.38-.48,5.92-4.05,11.59-8.6,16.57-13.62,7.37-7.44,9.6-16.12,4.42-25.7-6.95-12.85-8.74-25.78-1.8-39.33,2.53-4.93,1.5-10.25-3.43-13.86-6.16-4.51-9.35-10.58-11.39-17.31-1.35-4.42-4.15-7.53-7.94-10.35-2.79-2.08-5.43-4.78-7.01-7.73-3.07-5.75-4.21-6.49-10.41-4.02,4-4.4,9.48-4.48,12.41.47,3.21,5.42,8.73,7.09,13.82,9.67,6.57-9.12,6.67-10.74,1.6-18.54-1.5-2.3-3.09-4.61-4.12-7.11-.77-1.87-.72-4.04-1.04-6.07.41,5.35,4.65,8.52,7.78,12.18,4.73,5.53,7.13,10.91,2.87,18.04-4.09,6.85-1.19,17.63,5.15,22.74,3.74,3.02,7.76,5.74,11.65,8.6-.5.42-1,.84-1.49,1.26,4.39-.92,8.77-1.85,13.16-2.77-7.24,3.67-13.32,7.48-13.46,16.11-.03,1.73-.8,3.54-1.59,5.16-3.8,7.73-3.07,15.27-.08,23.15,2.43,6.41,4.53,13.14,5.14,19.86.42,4.59-1.98,9.4-3.29,14.78,9.66-5.39,19.17-10.7,29.33-16.37-1.3-1.59-2.69-3.28-4.6-5.6,2.91.77,5.3.93,7.12,1.97,4.48,2.56,8.11.48,9.72-2.63,3.17-6.11,5.42-12.69,7.44-19.24.56-1.82-.4-4.77-1.82-6.2-1.54-1.54-4.38-2.24-6.77-2.55-.65-.08-1.87,2.54-2.53,4.03-1.65,3.77-3.12,7.62-4.66,11.43-.39-4.33.18-8.34.04-12.32-.28-8.3-7.76-15.9-2.81-24.75.11-.2-.11-.58-.19-.87-2.5-8.62-6.59-15.68-16.79-18.53-5.33-1.49-10.14-4.61-15.65-7.2,8.81,1.51,16.8,2.89,24.74,4.25,2.36-9.53,2.3-9.56-6.73-12.12-2.76-.78-5.45-1.79-8.11-2.82-8.26-3.19-11.64-8.93-10.15-17.22.37-2.07,1.22-4.09,1.32-6.16.07-1.46-.27-3.48-1.29-4.33-5.14-4.29-10.41-8.49-15.94-12.33-5.49-3.8-12.21-3.04-16.98,1.55-2.34,2.26-4.47,4.71-6.68,7.09-3.33,3.59-5.96,7.3-1.97,12.13-5.4-4.72-5.52-8.19-.9-15.78,3.95-6.5,3.06-8.37-4.8-9.67-1.88-.31-3.85-.41-5.75-.27-5.17.38-10.6,4.81-10.16,9.21.61,6,2.33,11.91,3.64,18.18,2.27-1.36,4.06-2.42,6.41-3.83-8.71,21.27-11.11,44.27-5.83,55.49,4.22-.88,8.52-1.77,12.82-2.66-5.89,3.71-11.66,6.8-13.08,14.39-.76,4.08-1.72,7.21,1.43,10.76,4.72,5.32,3.95,10.08-1.59,14.98-1,.88-2.39,2.08-2.39,3.14,0,6.27.19,12.55.7,18.8.23,2.88,2.37,3.49,5.26,2.51,4.07-1.38,8.34-2.28,12.28-3.91,1.53-.64,2.83-2.55,3.46-4.15,2-5.03,2.67-10.75,5.63-15.17,4.29-6.4,3.54-11.86.42-18.18-1.75-3.53-3.73-8.34-2.49-11.52,3.25-8.4-.31-14.2-5.7-20-1.89-2.04-3.6-4.22-5.4-6.34l1.05-.86c4.43,3.64,9.37,6.87,13.12,11.04,3.35,3.72,5.61,8.12,11.99,6.68.05-.01.17.23.26.35-9.91,8.28-10.16,8.39-4.23,19.87,4.01,7.77,4.31,14.88-1.61,21.85-.98,1.16-1.89,2.55-2.22,3.96-.49,2.04-.76,4.23-.54,6.3.73,7.02,1.71,14.01,2.59,21.01-2.53-1.87-3.84-3.87-5.17-5.85-3.64-5.45-9.88-4.85-14.82-2.43-6.98,3.41-12.55,8.28-14.49,15.93-1.77,6.99-4.1,13.88-5.43,20.94-.8,4.22-.15,8.68-.15,12.85,6.33-4.89,12.22-9.44,18.11-14.01,3.21-2.49,6.27-5.04,3.65-9.92Zm99.93,76.17c-6.29-1.66-14.12-1.4-17.01,2.17-3.25,4.02-6.31,8.41-8.25,13.07-2.71,6.51.4,10.04,7.67,10.15,8.15.13,14.55-3.05,19.61-8.82,9.98-11.37,12.37-25.27,15.22-39.25-2.84-.34-5.36-.61-7.87-.94-7.32-.96-9.57.1-13.28,6.06-1.28,2.06-2.73,4.05-4.22,5.99-2.95,3.88-2.53,5.57,1.82,7.78,2.18,1.11,4.2,2.51,6.3,3.78Zm-261.58,1.33c-.13-.2-.27-.4-.4-.6,1.27-1.06,2.39-2.34,3.83-3.14,7.51-4.15,7.61-4.36,2.14-10.81-1.49-1.76-3.09-3.44-4.77-5.03-5.31-5.01-11.82-4.87-18.96-4.1,1.01,4.75,1.71,9.02,2.85,13.19,2.46,9.02,5.58,17.82,11.92,25.25,5.16,6.05,11.68,9.85,20.18,9.56,2.5-.09,6.63-.85,7.08-2.17,1.01-2.99.85-6.69-.08-9.78-.87-2.91-3.39-5.37-5.09-8.07-3.02-4.8-7.86-6.82-13.74-5.57-1.67.35-3.3.85-4.94,1.29Zm210.96,71.84c.28.27.55.55.83.82,1.53-.66,3.3-1.05,4.55-2.03,9.54-7.42,18.06-15.75,23.64-26.22,4.85-9.1,2.95-12.89-6.31-14.26-.14-.02-.29.08-.74.22-2.83,7.29-7.4,13.54-14.69,18.01-1.22.75-1.69,3.5-1.48,5.21.87,6.88-.21,13.11-5.8,18.24Zm-182.8-41.28c-9.34.57-10.92,2.7-8.22,10.86.33,1,.72,2,1.23,2.92,5.76,10.45,14.2,18.8,23.82,26.18,1.31,1.01,3.24,1.32,4.88,1.95-4.52-5.55-6.04-11.22-5.42-17.71.2-2.14-.19-5.5-1.65-6.41-7.15-4.45-11.61-10.6-14.64-17.78Zm211.96-227.58c-3.15,8.96-1.07,15.8,2.24,22.74,1.77,3.72,2.97,8.11,2.77,12.12-.47,9.49,4.46,14.37,15.12,13.36,1.09-6.65.14-12.86-3.5-18.92-4.14-6.87-7.66-14.07-11.54-21.09-1.41-2.55-3.07-4.97-5.09-8.22Zm-240.58,49.69c3.82-1.13,7.49-1.42,9.98-3.17,2.39-1.68,5.44-5.28,4.93-7.33-1.93-7.78,1.39-14.2,4.44-20.73,2.66-5.7,1.79-11.27.42-17.21-1.94,1.66-3.43,3.48-4.52,5.48-4.49,8.24-8.88,16.52-13.25,24.82-2.86,5.44-3.06,11.19-2.01,18.13Zm23.17-54.7c4.66-.81,8.54-1.43,12.4-2.17,10.96-2.09,14.68-10.38,8.64-19.68-9.58,4.96-18.16,10.65-21.04,21.85Zm191.85-22.12c-4.39,10.9-1.64,17.36,8.13,19.59,4.3.98,8.72,1.48,13.83,2.33-3.31-11.16-11.89-16.9-21.95-21.92ZM92.63,219.11c2.48.21,4.96.38,7.43.65,3.66.39,7.35.67,10.96,1.31,3.36.6,5.45,2.69,5.36,6-.09,3.29,1.91,7-3.25,9.22-4.01,1.72-7.68,4.53-8.82,9.53,3.07-1.03,5.58-1.98,8.17-2.71,3.21-.9,5.2-.2,6.59,3.19,1.13,2.77,3.33,5.67,5.93,7.3,9.05,5.67,18.55,10.72,27.7,16.25,1.57.95,3.25,3.18,3.14,4.7-.12,1.63-1.98,3.84-3.67,4.51-3.18,1.27-6.75,2.09-10.21,2.28-14.8.84-29.38-7.82-35.3-20.6-.26-.57-.72-1.06-1.34-1.94-3.3,19.62,23.92,35.79,42.9,28.25,5.05-2.01,8.67-1.01,10.54,3.66,3.91,9.75,7.66,19.51-2.28,28.7-4.88,4.52-4.97,7-3.99,11.12,2-7.95,10.01-10.56,16.11-14.91.42-.3,1.5.04,2.2.26,12.21,3.87,24.4,7.77,36.6,11.66-1.76-1.93-3.66-3.81-5.97-4.97-6.05-3.05-12.16-6.04-18.47-8.57-5.31-2.13-10.35-4.2-12.24-9.88-1.38-4.15-3-8.25-4.08-12.47-1.94-7.63.87-13.74,7.98-18.28,7.86-5.02,12.97-5.12,20.83-.17,3.02,1.9,5.83,4.08,9.08,6.37-10.13-18.51-21.98-18.84-35.01-11.58-6.41,3.58-8.38,3.8-13.81-1.22-3.27-3.03-6.03-7.01-7.62-11.04-1.53-3.87-1.26-8.37-1.83-13.07-1.46,4.18-2.82,8.08-4.29,12.31-3.55-2.18-6.63-4.33-9.96-6.05-3.7-1.91-5.64-4.65-6.22-8.51-.8-5.34-1.76-10.66-2.75-15.98-.88-4.75-4.1-7.83-9.08-7.89-7.11-.1-14.24.71-21.36,1.13.01.49.02.97.03,1.46Zm253.95,16.59c-1.04-.66-2.54-1.03-3.12-1.93-2.65-4.12,1.18-12.34,6.34-13.2,5.74-.95,11.59-1.34,17.4-1.97-6.49-1.64-13.09-2.74-19.69-2.75-6.5,0-9.86,3.24-11.08,9.29-.59,2.94-.57,6.01-1.32,8.9-1.12,4.27-1.64,9.22-4.35,12.45-3,3.58-8.18,5.56-12.68,8.41-1.42-3.87-2.73-7.45-3.77-10.29-1.35,5.26-1.62,11.32-4.48,16-2.59,4.22-7.67,7.48-12.37,9.99-1.55.83-5.43-1.8-8.08-3.14-14.24-7.21-29.22-1.84-33.04,11.99,3.13-2.18,6.32-4.2,9.27-6.49,10.57-8.23,26.29,2.17,28.06,10.43,1.77,8.24-1.94,15.65-5.01,23.03-2.16,5.19-7.84,6.16-12.54,8.35-6.57,3.06-12.97,6.47-19.35,9.87-1.48.79-2.61,2.13-3.91,3.21,4.38-1.08,8.22-2.56,12.13-3.86,8.43-2.81,16.88-5.54,25.35-8.23.64-.21,1.67-.17,2.17.18,5.93,4.19,13.24,7.01,16.35,15.21.27-7.39-4.6-11.19-8.02-15.77-1.83-2.46-4.06-5.69-3.74-8.31.67-5.52,2.36-11.08,4.68-16.21,1.59-3.53,5.25-4.85,10.01-4.52,14.19,1,26.57-3.19,36.37-13.14,4.14-4.2,6.24-9.57,5.75-13.84-5.43,12.39-17.03,20.9-31.48,21.81-5.17.32-10.72-1.11-15.7-2.77-3.7-1.23-3.74-6.17-.57-8.04,8.95-5.27,18.1-10.27,26.89-15.75,2.93-1.83,5.7-4.47,7.39-7.34,3.07-5.22,3.76-5.84,9.74-3.78,1.65.57,3.23,1.28,5.75,2.29-1.59-5.33-5.53-7.65-9.33-10.08Zm-210.18-61.58c.32-2.79,1.46-5.49,1.8-8.28.79-6.44-2.05-10.94-6.77-11.84,0,4.49.37,9.09-.09,13.61-.58,5.61.8,10.47,5,16.05,0-3.99-.25-6.79.07-9.54Zm191.57-20.52c-5.5,1.94-7.95,6.73-6.91,12.84.94,5.55,1.77,11.11,2.58,16.23,8.39-8.45,1.7-19.25,4.33-29.06Z"/>
</svg>