<?xml version="1.0" encoding="UTF-8"?>
<svg id="Layer_1" data-name="Layer 1" xmlns="http://www.w3.org/2000/svg" viewBox="0 0 459.78 459.79">
  <defs>
    <style>
      .cls-1 {
        fill: #fff;
        stroke-width: 0px;
      }
    </style>
  </defs>
  <path class="cls-1" d="m317.89,284.32s.01-.05.02-.08c.87-2.39,1.7-4.8,2.49-7.21.21-.64.42-1.29.62-1.93.62-1.94,1.21-3.9,1.76-5.85,3.2-11.3,5.4-22.84,6.33-34.62,1.09-13.71,1.38-27.49,1.97-41.24.63-14.9,1.18-29.81,1.8-44.71.02-.5.07-1.09.25-1.56.08-.33.21-.63.4-.85,2.14-2.42,4.4-4.73,6.6-7.06,4.06,3.09,6.4,5.9,6.11,11.19-1.43,26.63-2.06,53.3-3.54,79.93-.81,14.6-3.31,28.88-7.34,42.81-.72,2.54-1.51,5.06-2.34,7.57-1.53,4.67-3.24,9.29-5.11,13.88-.18.43-.39.84-.85,1.8-3.25-3.31-6.32-6.36-9.26-9.54-.38-.43-.24-1.61.01-2.32.03-.07.05-.14.08-.21Zm-53.23-68.78c2.13,1.9,4.11,3.85,6.02,5.82,4.64,4.76,4.91,4.89-1.13,9.28-1.51.99-3.01,2.03-4.53,3.08,14.02,13.68,28.2,27.52,42.39,41.37.03-.1.07-.19.1-.29.51-1.5,1.02-3,1.49-4.52,3.66-11.4,6.42-23.42,7.18-35.73,1.48-24.06,2.24-48.16,3.29-72.24.02-.47-.2-.96-.46-2.14-18.28,18.61-36.25,36.93-54.35,55.37Zm-35.24,33.8c-20.11,20.59-40.13,41.07-60.15,61.56-.25-.08-.26.06-.16.28-.31-.06-.1.33.13.71,14.96,24.61,34.72,44.53,58.98,59.98.82.53,2.62.42,3.48-.14,4.63-3.04,9.23-6.15,13.61-9.53,18.39-14.15,33.53-31.21,45.15-50.52-.02-.02-.03-.03-.05-.05.05-.08.1-.17.15-.25-20.49-20.79-40.65-41.25-61.14-62.04Zm52.9-106.52c-17.42-5.52-34.29-12.41-50.63-20.6-1.01-.51-2.74-.21-3.9.28-11.4,4.88-22.71,10-34.16,14.78-5.69,2.37-11.62,4.16-17.75,6.31.07.07.13.13.2.2-.1.03-.19.07-.29.1,18.26,17.98,36.32,35.77,53.86,53.04,17.69-17.5,35.71-35.33,53.87-53.29-.05-.02-.09-.04-.14-.06.08-.07.16-.15.24-.23-.46-.19-.87-.39-1.3-.53Zm-133.11,123.24c.89,3.16,1.97,6.27,2.92,9.27,14.34-14.18,28.55-28.24,42.37-41.91-3.02-2.21-5.76-4.47-8.34-6.58-.43-.37-.68-.98-.36-1.34,2.79-3.13,5.65-6.24,8.9-9.23-18.22-18.41-36.29-36.67-54.28-54.84v.38l-.09-.09c0,.71-.03,1.65,0,2.6.65,18.16,1.45,36.32,1.93,54.48.43,16.05,2.64,31.8,6.95,47.26Zm5.32-143.41c.06.06.12.12.18.17-.09.04-.18.08-.27.12,3.17,3.04,6.08,5.67,8.78,8.49,1.4,1.46,2.67,1.65,4.55,1.09,20.6-6.07,40.39-14.09,59.32-24.23,1.78-.96,3.25-1.42,5.26-.26,3.97,2.29,8.09,4.31,12.23,6.29,15.38,7.33,31.21,13.49,47.61,18.13,1.06.3,2.74.07,3.51-.61,3.16-2.76,6.07-5.79,9.45-9.09-.05-.02-.09-.04-.14-.06.07-.08.15-.15.23-.23-.94-.4-1.36-.63-1.8-.75-25.25-6.71-49.24-16.5-71.97-29.39-.77-.44-2.25-.38-3.05.07-22.55,12.81-46.37,22.5-71.41,29.23-.66.18-1.27.53-2.48,1.03Zm217.18,231.27c-3.26-4.93-6.21-10.24-10.3-14.4-32.25-32.8-64.75-65.36-97.16-97.99-1.44-1.45-2.89-2.91-4.33-4.36-6.55,4.24-14.08,8.04-24.78,9,.36.4.73.82,1.14,1.22,33.45,33.35,66.9,66.71,100.37,100.05,3.31,3.3,6.39,7.01,10.2,9.62,10.88,7.45,22.08,14.44,33.15,21.61,3.81,2.46,7.63,4.93,11.44,7.39.15-.19.3-.39.46-.58-.02-.03-.04-.06-.06-.09.05-.07.1-.13.15-.2-6.75-10.43-13.44-20.9-20.28-31.27Zm12.61-296.58c-5.81-.11-10.39,3.34-12.13,8.6-.04.12-.08.25-.12.38-.35,1.05-.58,2.18-.68,3.36-.03.35-.1.71-.19,1.07-.03.1-.06.21-.1.31-.34.93-.87,1.83-1.5,2.47-10.74,10.9-21.58,21.7-32.41,32.52-.52.52-1.13.95-2.17,1.81-5.06-5.2-10.09-10.29-14.99-15.5-1.06-1.12-1.87-2.61-2.38-4.07-1.36-3.88-4.46-6.16-8.48-5.93-3.54.22-6.41,2.61-7.43,6.13-.09.29-.17.59-.24.89-.75,3.42,1.36,7.2,4.69,9.02,2.12,1.16,4.21,2.52,5.97,4.16,3.65,3.4,7.07,7.03,10.65,10.66-.78.86-1.36,1.53-1.97,2.15-18.36,18.43-36.72,36.86-55.08,55.29-10,10.04-20.01,20.08-30.01,30.12,4.89.61,9.52,1.98,13.16,4.06,4.01,1.97,7.44,4.12,10.5,6.4,23.69-23.52,47.38-47.05,71.07-70.57,3.28-3.26,6.61-6.49,10.27-10.09,2.78,2.95,5.28,5.58,7.76,8.24,2.76,2.97,5.9,5.51,7.53,9.53,1.35,3.33,5.42,4.72,8.75,3.9,2.93-.72,5.14-2.79,6.02-5.52.23-.65.39-1.33.47-2.05.35-3.41-1.43-7.14-4.7-8.06-3.39-.96-5.51-3.22-7.81-5.47-4.28-4.17-8.57-8.32-12.86-12.48.42-.61.58-.92.81-1.15,11.36-11.36,22.72-22.73,34.15-34.02.7-.69,1.99-1.04,3.03-1.1,5.69-.33,10.09-3.65,11.65-8.47.03-.1.06-.19.09-.29.42-1.27.63-2.65.62-4.1-.06-6.74-5.29-12.09-11.94-12.2Zm-83.9,262.76c-1.83,2.71-3.6,5.41-5.44,8.06-16.72,23.97-37.66,43.37-62.88,58.17-1.64.96-2.8.9-4.39-.03-18.48-10.8-35-24.04-48.93-40.29-7.08-8.25-13.42-17.12-20.26-25.92-.05.02-.25.15-.41.3-2.25,2.22-4.42,4.51-6.76,6.63-.67.61-1.08,1.14-1.23,1.72-.34.81-.14,1.65.65,2.84,19.83,29.95,45.65,53.3,77.22,70.38,1.8.98,3.03.31,4.47-.47,23.64-12.82,44.22-29.44,61.4-50.13,5.72-6.89,10.87-14.25,16.05-21.09l-.07-.07c.06-.07.11-.15.17-.22-3.48-3.58-6.45-6.65-9.59-9.88Zm-100.72-83.15c-32.6,32.71-65.2,65.42-97.8,98.14-1.95,1.96-3.96,3.93-5.48,6.21-6.05,9.06-11.93,18.25-17.86,27.4-3.57,5.51-7.13,11.04-10.69,16.57l.05.05c-.05.08-.1.16-.15.24.16.14.31.29.47.43.64-.38,1.3-.74,1.93-1.15,10.6-6.85,21.27-13.6,31.76-20.61,4.83-3.22,9.6-6.63,13.89-10.51,6.22-5.65,11.98-11.81,17.96-17.75,30.22-30.01,60.45-60.02,90.68-90.03-10.12-1.28-18.09-4.81-24.76-8.99Zm-72.81-87.96c-.03-.92-.06-2.06-.58-2.69-2.05-2.49-4.3-4.83-6.4-7.15-3.01,2.11-4.95,4.21-5.81,6.96-.06.15-.1.31-.14.47-.4,1.3-.55,2.74-.47,4.4,1.16,23.2,1.94,46.43,2.65,69.65.65,21.07,4.12,41.63,10.77,61.63,1.52,4.57,3.28,9.06,4.99,13.74.66-.46.92-.59,1.12-.78,2.45-2.42,4.8-4.94,7.36-7.24.68-.61,1.06-1.2,1.21-1.82.01-.01.02-.03.02-.05.31-.85.16-1.76-.25-2.92-6.75-18.73-10.92-38-11.67-57.95-.96-25.41-1.85-50.83-2.8-76.25Zm-47.1-64.56c8.27,8.1,16.43,16.31,24.61,24.49,3.11,3.11,6.2,6.25,9.47,9.54-5.7,5.67-11.11,11.09-16.59,16.42-.63.61-1.69.81-2.58,1.09-2.88.87-4.95,2.88-5.75,5.43-.36.99-.53,2.07-.47,3.2.2,3.83,3.11,7.1,6.9,7.75,3.67.64,7.47-1.52,9.02-5.13.09-.22.17-.45.24-.68.01-.04.02-.08.04-.12.04-.14.08-.28.13-.42.02-.06.03-.11.05-.17.15-.47.33-.9.64-1.22,4.42-4.61,8.93-9.13,13.63-13.89,27.35,27.21,54.46,54.19,81.23,80.83,3.52-2.63,7.53-5.11,12.31-7.34,3.2-1.73,7.05-2.84,11.11-3.39-28.94-29.18-57.87-58.34-87.25-87.97,2.68-2.46,5.06-4.68,7.47-6.85,3.22-2.91,5.78-6.46,10.13-8.16,1.8-.7,3.04-2.19,3.67-3.94.03-.1.07-.19.1-.28.58-1.59.66-3.4.2-5.04-1.04-3.77-3.92-6.11-7.64-6.23-3.89-.11-6.93,2.18-8.22,5.9-.51,1.46-1.32,2.94-2.38,4.06-3.41,3.62-6.99,7.07-10.51,10.58-1.6,1.59-3.21,3.17-4.84,4.78-.72-.62-1.19-.96-1.59-1.36-10.95-10.96-21.93-21.89-32.79-32.94-1-1.02-1.61-2.74-1.76-4.2-.74-7.15-6.06-12.09-13.04-11.83-5.22.19-9.53,3.61-11.09,8.32-.03.09-.06.17-.09.26-.4,1.2-.63,2.49-.64,3.84-.06,7.01,5.03,12.18,12.18,12.68,1.42.1,3.05.97,4.09,1.99Zm152.28,125.16c-1.39-1.28-1.91-1.24-3.49.02-9.78,8.93-9.22,21.66,1.28,30.27.32,0,.65.02.97.03,10.67-8.58,11.04-21.4,1.24-30.31Z"/>
</svg>