<?xml version="1.0" encoding="UTF-8"?>
<svg id="Layer_1" data-name="Layer 1" xmlns="http://www.w3.org/2000/svg" viewBox="0 0 459.79 459.78">
  <defs>
    <style>
      .cls-1 {
        fill: #fff;
        stroke-width: 0px;
      }
    </style>
  </defs>
  <path class="cls-1" d="m227.01,434.05c-.73-1.08-1.3-2.23-2.21-3.22-5.76-6.27-8.41-13.28-9.29-20.72-.06-.5-.21-.99-.53-1.48-1.85,4.35-2.29,8.76-1.36,13.28-7.48-5.98-8.44-13.18-7.07-20.83-.29-.03-.57-.06-.86-.09-.46,1.09-1.19,2.16-1.33,3.27-.89,7.01,1.06,13.68,4.86,20.1,1.11,1.87,2.05,3.8,3.07,5.7-.27.14-.54.28-.81.43-1.22-.74-2.49-1.44-3.65-2.23-10.45-7.13-15.08-16.21-16.72-26.38-2.15-13.38-.88-26.64,1.29-39.96,2.71-16.67,4.9-33.4,6.92-50.13.48-3.97-.43-8.07-1.14-12.06-.27-1.51-1.54-3.03-2.8-4.31-1.68-1.71-3.63-1.61-5.44.04-2.66,2.42-3.63,5.29-3.71,8.31-.32,12.75-.81,25.5-.79,38.26.03,19.1.42,38.19.69,57.29.12,8.52,2.41,16.62,8.89,23.87.6.67,1.01,1.44,1.48,2.17.06.09-.05.24-.16.7-19.99-4.98-40.74-8.62-55.42-21.18-.26.22-.51.44-.77.65,4.7,5.01,9.39,10.01,14.21,15.15-.55-.03-1.18.05-1.65-.11-9.66-3.18-19.25-6.48-27.25-11.72-5.81-3.81-9.99-8.33-10.21-14.27-.08-2.24.46-4.49.77-7.24-1.86,1.69-3.33,3.03-4.87,4.43-8.71-7.01-13.32-15.25-15.9-24.81,1.71,1.1,2.98,1.95,4.29,2.77,1.35.83,2.74,1.63,4.54,2.22-4.32-11.93-12.01-22.81-17.77-34.22.19-.1.39-.19.58-.29,3.62,3.14,7.24,6.29,10.86,9.43.25-.05.51-.11.76-.16v-70.16c-2.3.21-4.83.45-7.84.73,1.92-4.69,3.63-8.84,5.46-13.31,1.52.64,2.65,1.13,4.12,1.75-.21-.66-.3-1.09-.48-1.5-1.93-4.59-2.24-9.12-.96-13.94,1.57-5.94,2.13-12.03,2.91-18.07,1.2-9.27,2.23-18.55,3.34-27.82.08-.64.31-1.26,1.13-1.88.7,4.72,1.52,9.44,2.08,14.18,1.3,10.96,2.47,21.92,3.72,32.88.11.95-.27,2.05,1.68,2.43.44.09.77,1.02.81,1.58.22,3.17.39,6.33.48,9.5.07,2.43.69,4.47,4.26,5.54,3.12.93,3.94,3.29,4.94,5.36.17.36-1.12,1.51-1.91,1.62-2.2.31-3.3,1.16-3.37,2.7-.49,10.85-.93,21.69-1.39,32.54.25.08.51.15.76.23.89-.87,1.66-1.82,2.69-2.59,3.52-2.62,6.96-5.33,10.78-7.7,2.53-1.57,4.07-3.36,4.16-5.67.25-5.86.28-11.73.35-17.6.03-2.21-1.33-3.87-3.94-5-.71-.31-1.45-.64-1.98-1.08-.63-.52-1.04-1.17-1.55-1.77.78-.28,1.53-.73,2.35-.82,2.71-.31,4.09-1.72,5.24-3.28,3.76-5.05,5.35-10.61,6.75-16.18,4.15-16.6,4.94-33.38,4.5-50.21-.12-4.56-.02-9.13.25-13.77,3.34,3.83,8.12,6.79,8.04,12.21-.19,12.61.22,25.24,1.13,37.84.53,7.32,3.02,14.56,3.66,21.88,1.19,13.53,2,27.08,2.37,40.64.9,32.66,1.46,65.32,2.17,97.98.02.81.24,1.61.36,2.42.27,0,.54,0,.82,0,.16-.89.45-1.78.47-2.68.57-21.19,1.17-42.37,1.65-63.56.27-11.88.32-23.75.59-35.63.02-1.05.72-2.21,1.53-3.11,12.22-13.65,24.68-27.18,36.7-40.91,6.85-7.83,13.02-15.98,19.5-23.98.36-.45.75-.89,1.3-1.53.54.57.98.96,1.32,1.4,17.82,22.62,36.94,44.63,58.12,65.65.79.78,1.18,1.96,1.21,2.96.67,27.73,1.24,55.47,1.9,83.2.14,5.86.53,11.72,1.45,17.63.18-1.26.47-2.52.51-3.79.74-26.11,1.35-52.22,2.2-78.33.59-18.01,1.29-36.02,2.38-54.01.36-5.9,2.47-11.74,3.11-17.65,1.03-9.48,1.65-18.98,2.17-28.49.38-7.08.26-14.17.54-21.25.05-1.18.74-2.47,1.63-3.48,1.73-1.97,3.81-3.77,5.74-5.64.3.04.6.07.9.11,0,1.82-.03,3.65,0,5.47.22,13.29.25,26.59.76,39.88.4,10.3,3.38,20.33,7.23,30.23,1.61,4.13,4.37,7.41,10.35,8.68.32.07.6.26,1.34.61-3,1.31-5.76,2.42-8.38,3.7-.86.42-1.9,1.27-1.9,1.91.06,5.33.21,10.66.63,15.97.27,3.46,2.08,6.62,5.39,9.11,3.71,2.8,7.73,5.37,11.58,8.02-.03.07.18-.21.19-.49.24-8.91.47-17.81.66-26.72.02-1.08.1-2.22-.34-3.21-.33-.74-1.31-1.64-2.26-1.84-2.49-.53-3.3-1.71-2.24-3.18,1.2-1.67,2.75-3.39,4.73-4.53,1.73-.99,2.67-1.95,2.75-3.45.19-3.37.3-6.74.54-10.11.06-.82-.39-1.85,1.63-2.16.58-.09.96-1.61,1.08-2.51.97-6.91,1.82-13.84,2.79-20.75,1.2-8.52,2.48-17.04,3.75-25.55.11-.71.46-1.39.69-2.09.25-.01.5-.03.75-.04.21.76.53,1.52.62,2.29,1.56,14.39,2.44,28.84,4.92,43.15,1.05,6.08,1,11.85-.78,18.19,3.7-1.86,4.43,0,5.18,1.59,1.51,3.17,2.89,6.38,4.49,9.96-2.85-.37-5.23-.67-8.2-1.05v70.32c3.94-3.2,7.9-6.41,11.86-9.62.13.05.27.11.4.16-1.28,2.19-2.48,4.42-3.87,6.57-4.6,7.13-9.27,14.24-13.89,21.36-.94,1.46-1.82,2.95-2.58,4.47-.31.63-.23,1.37-.33,2.05.24.11.48.22.72.33,3.19-2.01,6.38-4.01,9.88-6.22-2.09,10.46-10.24,24.09-15.45,25.84-.93-1.37-1.87-2.75-2.82-4.13-.29,0-.59,0-.88,0-.19.91-.68,1.84-.52,2.71,1.82,9.94-4.71,16.82-15.45,21.79-6.65,3.08-13.93,5.44-20.93,8.11-.45.17-.99.22-2.34.5,5.02-5.7,9.6-10.92,14.19-16.14-.2-.16-.4-.31-.6-.47-7.98,5.53-15.95,11.12-26.22,14.24-10.14,3.08-20.42,5.92-30.63,8.86l-.48-.58c.44-.63.84-1.27,1.33-1.88,6.06-7.47,9.28-15.56,9.35-24.25.14-17.81.26-35.63.18-53.45-.06-12.48-.43-24.97-.72-37.45-.07-2.76-.27-5.54-.7-8.28-.23-1.51-.74-3.09-1.66-4.44-1.96-2.88-5.08-3.02-7.25-.26-1.44,1.83-2.4,3.94-3.07,6.01-1.65,5.07-.98,10.22-.26,15.31,2.49,17.72,5.13,35.42,7.67,53.14,1.85,12.89,1.81,25.75-1.91,38.48-2.09,7.16-6.87,13.35-13.93,18.54-1.29.95-2.85,1.7-4.28,2.55-.26-.14-.52-.29-.78-.43.55-1.24.89-2.57,1.69-3.72,6.17-8.83,4.65-17.34-1.78-25.69-1.23-1.6-2.39-3.24-3.87-4.78,3.01,7.99,8.32,15.77,3.47,24.19-.33,0-.67,0-1,.01.15-.68.37-1.36.42-2.05.09-1.14,1.13-2.32-1.37-3.15-1-.33-1.02-2.25-1.61-3.75-1.66,8.43-1.74,17.04-11.72,22.83h-.55Zm11.49-67.14l.64-.02c.22-.7.54-1.38.65-2.09,2.03-13.13,4.31-26.25,5.92-39.41.85-6.96.8-14,.56-20.99-.08-2.43-1.63-4.95-3.12-7.21-1.25-1.89-3.7-2.02-5.27-.28-1.78,1.97-3.5,4.21-4.04,6.49-.93,3.89-1.28,7.91-1.25,11.87.13,16.35,2.52,32.58,5.08,48.79.15.96.56,1.9.85,2.85Zm-23.4-1.82c.28,0,.57,0,.85,0,.38-1.31.89-2.61,1.13-3.93,1.25-6.82,2.83-13.62,3.53-20.47,1.16-11.29,1.8-22.61,2.5-33.92.21-3.42-.83-6.69-3.71-9.55-2.43-2.41-4.49-2.41-6.87.05-2.89,2.98-3.13,6.41-3.21,9.87-.38,16.5,1.84,32.88,4.2,49.25.42,2.91,1.05,5.81,1.58,8.71Zm-68.28-50.46c-3.28,3.15-4.33,4.58-4.93,8.14-.49,2.93-.89,5.93-.67,8.87,1.31,17.09,2.82,34.18,4.27,51.27.02.25.25.49.59,1.1.17-.68.25-.94.29-1.21,1.66-10.92,3.28-21.84,4.97-32.76,1.4-9.05,2.74-18.09,1.77-27.22-.37-3.47-2.24-6.17-6.28-8.19Zm164.09,66.83c.15-.02.3-.03.45-.05.09-.6.21-1.2.27-1.8,1.21-11.57,2.71-23.13,3.51-34.71.57-8.34.28-16.71.14-25.07-.03-1.62-1-3.27-1.81-4.83-.82-1.58-2.47-1.72-3.7-.36-1.79,1.99-4.08,4.05-4.62,6.29-.98,4.07-1.44,8.33-1.04,12.45.9,9.14,2.46,18.25,3.77,27.38.99,6.9,2.01,13.8,3.02,20.7Zm-183.84.93c.42-.69.58-.85.62-1.03,3.16-15.68,6.46-31.36,6.85-47.24.13-5.36-.98-10.75-1.68-16.11-.1-.75-.97-1.85-1.79-2.02-.75-.16-2.08.6-2.84,1.17-2.8,2.14-3.48,4.88-3.41,7.69.4,17.8.86,35.6,1.36,53.39.03,1.22.51,2.44.89,4.14Zm98.72-93.35c10.77-.06,16.08-3.01,15.95-8.88-.15-6.73-5.67-10.04-14.21-10.68-7.01-.52-14.17,5.24-14.17,10.47,0,5.06,5.56,9.13,12.42,9.09Zm104.3,87.94c.24,0,.48-.01.72-.02.17-.91.44-1.81.48-2.73.88-17.19,1.73-34.37,2.56-51.56.03-.52.05-1.19-.34-1.54-2.1-1.91-4.34-3.75-6.78-5.82-.41.89-.67,1.38-.87,1.88-2.8,6.98-2.79,14.14-1.97,21.28,1.01,8.8,2.33,17.58,3.68,26.36.63,4.07,1.66,8.1,2.5,12.15ZM228.11,37.17c-1.66,7.93-3.42,15.84-4.95,23.78-4.2,21.84-8.26,43.7-12.46,65.54-3.72,19.37-7.95,38.7-11.16,58.11-1.7,10.29-1.77,20.73-2.5,31.1-.55,7.81-.97,15.63-1.53,23.45-.08,1.09-.63,2.16-.96,3.24l-1-.08c-.22-1.44-.62-2.88-.64-4.32-.14-8.91-.19-17.81-.27-26.72-.07-8.14.18-16.26-4.86-23.94-2.2-3.36-3.01-7.2-4.51-10.81-.4-.95-1.03-1.85-1.56-2.77-.27.05-.54.09-.81.14-2.11,9.39-.98,18.91-1.46,28.57-1.92-.37-3.66-.75-5.43-1.04-2.7-.44-3.49.19-2.47,2.12.79,1.5,1.79,2.96,2.82,4.39,2.82,3.91,4.12,8.05,3.73,12.48-.13,1.47-.87,2-2.79,1.3-5.64-2.07-5.83-.25-6.62,2.96-.1.4-.07.81-.19,1.21-1.31,4.2-.19,7.44,6.1,8.9.78.18,1.69,1.28,1.65,1.93-.78,13.14-1.7,26.28-2.57,39.41-.08,1.2-.01,2.41-.01,4.18,1.19-1.11,1.9-1.72,2.52-2.38,17.02-17.95,32.68-36.54,47.38-55.56.91-1.17,1.78-2.36,2.76-3.5,1.21-1.4,2.63-1.37,3.92-.08,1.09,1.08,2.12,2.21,3.01,3.39,14.64,19.37,31.5,37.72,48.13,56.18.98,1.08,2.11,2.09,3.17,3.14.48-1.37.42-2.56.32-3.75-1.06-13-2.16-25.99-3.18-38.99-.27-3.38-.17-3.4,4.22-4.64,2.13-.6,4.34-1.25,4.29-3.22-.06-2.61-.36-5.23-.77-7.83-.24-1.57-1.7-1.96-3.64-1.44-.69.18-1.38.38-2.07.55-2.84.71-3.2.51-3.35-1.63-.26-3.77,1.49-7.16,3.62-10.48,1.25-1.95,2.75-3.82,3.9-5.8.49-.85.36-1.9.52-2.86-1.23-.08-2.47-.29-3.69-.23-1.87.09-3.72.36-5.76.58-.38-9.63.27-19.03-2.13-28.33-.76.72-1.02,1.46-1.32,2.19-2.09,5.09-3.26,10.53-6.54,15.17-2.94,4.15-3.42,8.22-3.6,12.56-.06,1.55-.09,3.1-.12,4.66-.23,10.73-.43,21.45-.71,32.18-.03,1.13-.47,2.25-.72,3.38-.39.02-.79.04-1.18.06-.48-1.08-1.26-2.15-1.37-3.25-.45-4.5-.82-9.02-.99-13.53-.4-10.38.36-20.85-1.19-31.14-3.37-22.32-7.78-44.56-11.96-66.81-4.18-22.18-8.55-44.35-12.95-66.51-1.67-8.4-3.65-16.78-5.49-25.16-.18,0-.37,0-.55,0Z"/>
</svg>