<?xml version="1.0" encoding="UTF-8"?>
<svg id="Layer_1" data-name="Layer 1" xmlns="http://www.w3.org/2000/svg" viewBox="0 0 476.58 243.36">
  <defs>
    <style>
      .cls-1 {
        fill: #fff;
        stroke-width: 0px;
      }
    </style>
  </defs>
  <g>
    <path class="cls-1" d="m83.94,193.14c-3.23.14-6.09.21-8.6.21s-5.43-.06-8.8-.21c-3.37-.13-6.44-.32-9.25-.49-.17.75-.28,1.51-.28,2.29,0,.58.14,1.13.44,1.71.28.58.8.91,1.58,1.02,3.65.47,6.26,1.21,7.8,2.21,1.52,1.02,2.3,2.78,2.3,5.37v21.87c-.32.13-.66.26-1,.36-.48.2-1.01.35-1.53.49-2.83.82-6.31,1.21-10.46,1.21-.42,0-.84,0-1.28-.02h-.08c-.41.02-.82.02-1.24.02-.8,0-1.6-.02-2.38-.07-4.57-.27-8.86-1.34-12.82-3.21-4.68-2.2-8.72-5.32-12.14-9.32-3.42-4.03-6.11-8.81-8.08-14.35-1.98-5.53-2.97-11.6-2.97-18.19,0-5.66.77-10.88,2.31-15.71,1.54-4.82,3.82-8.98,6.85-12.47,3.03-3.49,6.85-6.26,11.49-8.25,4.61-2,10.01-3,16.15-3,7.7,0,13.62,1.37,17.77,4.14,4.13,2.78,7.05,7.37,8.8,13.78.38,1.23,1.35,1.85,2.89,1.85.38,0,.86-.04,1.45-.14.58-.09.96-.24,1.14-.43-.86-3.43-1.56-6.96-2.09-10.53-.52-3.59-.88-7.05-1.08-10.4-3.09-.76-5.94-1.41-8.58-1.93-2.65-.51-5.27-.98-7.88-1.37-2.59-.38-5.21-.64-7.86-.78-2.64-.14-5.42-.22-8.3-.22-8.08,0-15.15,1.45-21.22,4.38-6.06,2.91-11.09,6.65-15.09,11.25-3.99,4.57-6.97,9.75-8.94,15.49-1.98,5.71-2.96,11.45-2.96,17.19,0,6.89.98,13.26,2.96,19.15,1.97,5.87,4.97,10.95,9.02,15.25,4.03,4.32,9.1,7.71,15.22,10.19,6.11,2.47,13.31,3.72,21.59,3.72,6.05,0,11.34-.22,15.88-.64,2.17-.22,4.34-.45,6.45-.73h.31c.78.02,1.54.06,2.28.09.32,0,.65.02.97.04-.97,1.76-2.29,3.31-3.89,4.5-.02.02-.06.04-.08.08-2.28,1.63-5.05,2.63-8.08,2.63-1.9,0-3.71-.38-5.33-1.1,2.67,2.08,6,3.27,9.63,3.27s6.73-1.13,9.38-3.04c.02-.04.06-.06.1-.08,2.5-1.85,4.43-4.44,5.47-7.45.14-.42.28-.83.38-1.25.06-.32.12-.64.21-.96.04-.2.08-.4.11-.6.04-.18.06-.38.08-.58l.06-.66v-25.07c0-1.91.6-3.33,1.81-4.22,1.2-.91,3.32-1.55,6.41-1.95.48-.07.88-.3,1.22-.63.34-.34.5-.98.5-1.93,0-.59-.08-1.34-.29-2.29-2.4.17-5.21.36-8.44.49"/>
    <path class="cls-1" d="m189.61,229.34c-1.92-.3-3.89-.81-5.92-1.57-2.02-.78-3.32-1.83-3.9-3.17l-24.58-60.34-2.36-5.81-5.29-13.01-2.69-6.57c-.78-.21-1.34-.3-1.72-.3-.5,0-.97.15-1.37.45-.54.4-1,1.06-1.39,1.97l-.38.89-.48,1.16s-.01.04-.01.06l-33.9,81.06c-.69,1.52-1.77,2.65-3.25,3.37-1.51.72-3.73,1.32-6.72,1.79-.78.1-1.28.38-1.52.85-.25.48-.36,1.06-.36,1.72,0,.78.09,1.53.3,2.31,2.2-.3,4.33-.49,6.33-.58,2.02-.1,4.01-.14,5.94-.14,2.78,0,5.61.06,8.5.21,2.89.13,5.63.32,8.24.51.17-.96.28-1.74.28-2.31s-.12-1.07-.36-1.49c-.24-.44-.7-.7-1.37-.8-5.87-.85-8.8-2.29-8.8-4.3,0-.76.24-1.72.72-2.87l6.9-17.24,2.33-5.84h.03l5.25-12.98,11.17-28.02,13.43,35.12h-25.86c-.25,5.62,6.47,5.88,6.99,5.88h21.18l9.09,23.66c.39.85.57,1.57.57,2.15,0,1.23-.76,2.17-2.3,2.78-1.54.64-3.56,1.18-6.05,1.65-.31,0-.61.18-.95.5-.34.34-.5.94-.5,1.79,0,.58.1,1.36.28,2.31,2.8-.2,5.92-.38,9.38-.51,3.47-.14,6.56-.21,9.25-.21s5.38.06,8.38.21c2.97.13,6,.32,9.08.51.21-.96.3-1.74.3-2.31,0-.85-.17-1.45-.51-1.79-.33-.32-.79-.6-1.37-.78"/>
    <path class="cls-1" d="m226.24,229.62c-6.56-1.14-9.82-3.21-9.82-6.16,0-.2.08-1.91.22-5.18.14-3.24.33-7.24.59-12.02.23-4.78.5-10,.78-15.63.3-5.64.57-11,.8-16.07.25-5.06.42-9.43.59-13.1.13-3.68.26-6.01.36-6.97l24.62,56.11h.02l3,6.87,3.51,7.98,6.31-15.69-28.8-66.74c-.21-.38-.42-.76-.67-1.14-.24-.38-.64-.68-1.22-.87-.58-.18-1.35-.36-2.3-.49-.97-.14-2.3-.21-4.05-.21-.86,0-2.02-.04-3.47-.07-1.44-.04-2.94-.1-4.53-.14-1.6-.06-3.19-.12-4.77-.22-1.58-.1-3-.21-4.25-.3-.2.98-.3,1.73-.3,2.3,0,1.54.48,2.33,1.45,2.44,3.36.58,5.65,1.21,6.85,1.93,1.2.71,1.81,1.85,1.81,3.36,0,.1-.06,1.85-.23,5.24-.14,3.4-.34,7.71-.57,12.9-.24,5.22-.51,10.87-.8,16.99-.28,6.13-.55,11.91-.8,17.37-.24,5.44-.46,10.15-.64,14.12-.21,3.97-.28,6.37-.28,7.24-.21,1.81-1.09,3.17-2.69,4.08-1.58.89-3.67,1.6-6.27,2.08-.97.2-1.45.96-1.45,2.29,0,.58.1,1.35.3,2.31,2.31-.21,4.76-.38,7.36-.52,2.59-.13,4.68-.2,6.2-.2,1.92,0,4.15.06,6.66.2,2.49.14,5.04.32,7.64.52.21-.97.3-1.74.3-2.31,0-1.44-.49-2.19-1.44-2.29"/>
    <path class="cls-1" d="m314.99,229.62c-3.55-.58-5.91-1.29-7.06-2.15-1.16-.86-1.78-2.2-1.88-4.01-.59-14.06-1.09-25.8-1.5-35.28-.44-9.46-.8-17.03-1.09-22.72-.3-5.68-.52-9.74-.66-12.19-.14-2.44-.23-3.71-.23-3.81,0-1.33.59-2.4,1.75-3.22,1.14-.8,3.47-1.46,6.92-1.93.97-.1,1.45-.89,1.45-2.44,0-.58-.1-1.33-.29-2.3-1.24.09-2.62.2-4.11.3-1.5.09-2.96.15-4.41.22-1.44.04-2.78.1-4.03.14-1.26.03-2.27.07-3.05.07-1.72,0-3.06.06-4.03.21-.96.13-1.74.31-2.3.49-.59.2-1.01.49-1.24.87-.24.38-.46.76-.64,1.14l-20.36,49.7h-.02l-8.94,21.85-6.29,15.35c-3.99-.58-7.48-2.74-9.78-5.8-.02-.02-.04-.06-.08-.08-1.81-2.49-2.89-5.51-2.89-8.8,0-.38.02-.76.04-1.12-.61,1.68-.95,3.49-.95,5.38,0,3.48,1.15,6.69,3.07,9.33.04,0,.05.04.08.08,2.88,3.82,7.49,6.31,12.68,6.31.27,0,.52,0,.76-.04.04.02.08.02.1,0,.12.02.25.02.36.02.21,0,.38-.02.54-.07.34-.08.63-.28.84-.57.34-.43.68-1.07,1.08-1.95l.52-1.23.92-2.23,30.17-72.35c0,.75.08,2.89.28,6.37.18,3.48.4,7.65.65,12.47.24,4.84.47,9.98.72,15.41.24,5.46.48,10.51.72,15.21.25,4.68.44,8.64.59,11.89.14,3.25.22,5.01.22,5.31,0,1.81-.7,3.1-2.09,3.86-1.4.76-4.03,1.53-7.87,2.29-.97,0-1.45.77-1.45,2.29,0,.58.1,1.35.31,2.31,1.14-.1,2.48-.21,4.02-.31,1.55-.09,3.11-.15,4.7-.22,1.58-.04,3.1-.1,4.55-.13,1.44-.04,2.64-.06,3.61-.06,2.3,0,4.83.06,7.58.2,2.74.14,5.79.32,9.16.52.21-.97.3-1.74.3-2.31s-.11-1.08-.38-1.5c-.24-.43-.58-.69-1.08-.79"/>
    <path class="cls-1" d="m399.88,210.84c-1.14,0-1.87.34-2.17,1-1.04,2.13-2.17,4.06-3.31,5.84-.09.15-.2.32-.3.47-1.06,1.65-2.28,3.1-3.61,4.36-.21.21-.42.4-.65.61-1.6,1.37-3.42,2.47-5.49,3.28-2.07.82-4.49,1.22-7.3,1.22h-7.94c-.98,0-1.92,0-2.81-.04-.72,0-1.43-.02-2.09-.06-3.46-.12-6.13-.42-7.93-.89-2.61-.68-3.92-2.01-3.92-4.03v-33.83h22.52c1.92,0,3.31.94,4.13,2.81.8,1.85,1.46,4.12,1.94,6.81.29,1.23,1.2,1.85,2.74,1.85.67,0,1.39-.09,2.17-.28-.3-2.97-.48-5.61-.58-7.96-.1-2.33-.14-4.33-.14-5.95,0-1.99.06-4.35.22-7.03.14-2.67.31-5.07.5-7.15-.3-.1-.68-.2-1.16-.3-.48-.1-.86-.14-1.14-.14-1.45,0-2.32.62-2.61,1.86-.48,2.68-1.14,4.95-1.94,6.8-.82,1.87-2.21,2.82-4.13,2.82h-22.52v-36.71h21.37c2.89,0,5.31.28,7.3.86,1.96.58,3.65,1.43,5.04,2.57,1.4,1.15,2.62,2.6,3.69,4.38,1.06,1.77,2.16,3.9,3.32,6.39.38.85,1.21,1.27,2.45,1.27.97,0,1.83-.28,2.61-.86-1.06-1.71-1.79-3.81-2.17-6.31-.38-2.47-.72-4.82-1.02-7.03-.28-2.19-.65-4.08-1.08-5.65-.42-1.57-1.26-2.37-2.53-2.37-1.07,0-3.17.14-6.36.44-3.17.28-6.92.43-11.24.43h-28.43c-2.22,0-4.73-.05-7.51-.15-2.78-.08-6.26-.28-10.39-.58-.1.4-.17.75-.22,1.07-.06.34-.08.76-.08,1.24,0,1.43.48,2.25,1.45,2.43,4.05.78,6.75,1.51,8.15,2.23,1.41.72,2.09,2.03,2.09,3.95v72.98c0,1.91-.78,3.24-2.36,4-1.58.78-4.21,1.49-7.87,2.15-.97.21-1.45.96-1.45,2.29,0,.58.1,1.36.3,2.31,2.89-.2,5.92-.38,9.08-.51,3.19-.14,6.16-.21,8.96-.21h31.6c1.26,0,2.74.04,4.49.14,1.73.08,3.42.15,5.11.2,1.14.04,2.23.08,3.25.14-.96,1.75-2.28,3.3-3.88,4.5-.02.02-.06.03-.08.08-2.28,1.62-5.06,2.62-8.08,2.62-1.91,0-3.71-.38-5.33-1.09,2.66,2.07,5.99,3.26,9.62,3.26s6.74-1.13,9.38-3.04c.02-.04.06-.06.1-.08,3.41-2.53,5.75-6.41,6.26-10.83.34-1.08.66-2.23.98-3.5.59-2.29,1.16-4.7,1.81-7.24.62-2.54,1.36-4.71,2.22-6.52-.47-.3-.98-.58-1.5-.87-.54-.28-1.04-.42-1.52-.42"/>
    <path class="cls-1" d="m470.02,190.84c-4.38-4.45-11.19-8.48-20.43-12.12-7.41-2.96-13.01-5.88-16.81-8.75-3.8-2.87-5.7-6.55-5.7-11.04,0-2.11.45-4.02,1.37-5.74.91-1.72,2.15-3.17,3.69-4.37,1.53-1.19,3.34-2.1,5.41-2.72,2.08-.62,4.26-.94,6.58-.94,5.96,0,10.68,1.24,14.14,3.73,3.46,2.49,6.44,6.45,8.95,11.9.29.58.72,1.1,1.31,1.57.58.48,1.48.72,2.73.72.48,0,1.2-.09,2.17-.29-.58-2.87-1.04-5.95-1.37-9.24-.34-3.3-.61-6.38-.8-9.26-5.19-2-9.87-3.43-14-4.3-4.14-.86-8.47-1.29-12.99-1.29s-8.23.68-11.69,2.01c-3.46,1.34-6.42,3.15-8.88,5.45-2.46,2.29-4.33,4.99-5.63,8.1-1.29,3.1-1.95,6.43-1.95,9.97,0,4.01.66,7.48,1.95,10.39,1.31,2.92,3.15,5.48,5.56,7.68,2.4,2.2,5.29,4.13,8.66,5.81,3.37,1.68,7.12,3.27,11.25,4.8,6.36,2.3,11.24,4.88,14.65,7.75,3.41,2.87,5.13,6.78,5.13,11.76,0,2.2-.39,4.25-1.16,6.16-.77,1.92-1.92,3.64-3.46,5.17-1.54,1.53-3.46,2.72-5.78,3.59-2.3.85-5,1.28-8.08,1.28-6.83,0-12.16-1.62-15.95-4.87-3.81-3.25-6.92-8.31-9.31-15.2-.48-1.14-1.04-1.98-1.66-2.51-.63-.52-1.52-.79-2.67-.79-.97,0-1.78.14-2.46.43.77,3.73,1.45,7.45,2.02,11.18.58,3.73,1.01,7.59,1.29,11.61,3.37,2.01,7.49,3.64,12.34,4.87,4.86,1.24,10.28,1.87,16.25,1.87s10.53-.72,14.57-2.15c4.05-1.44,7.34-3.42,9.9-5.95,2.55-2.54,4.42-5.5,5.63-8.89,1.19-3.39,1.8-7.05,1.8-10.98,0-6.49-2.19-11.97-6.57-16.41"/>
  </g>
  <g>
    <path class="cls-1" d="m84.63,70.39c-1.62,0-2.78.72-3.47,2.15-1.08,2.71-2.24,5.16-3.46,7.34-.06.11-.14.24-.21.35-1.31,2.23-2.89,4.12-4.77,5.66-1.86,1.53-4.23,2.7-7.08,3.5-2.83.81-6.31,1.21-10.46,1.21-1.71,0-3.39-.12-5.01-.36-3.34-.48-6.58-1.45-9.62-2.93-4.57-2.19-8.58-5.31-11.99-9.32-3.41-4.02-6.13-8.8-8.16-14.34-2.02-5.54-3.02-11.6-3.02-18.2,0-5.93.79-11.31,2.38-16.14,1.58-4.82,3.95-8.96,7.07-12.39,3.13-3.44,6.98-6.11,11.55-8.05,4.57-1.89,9.82-2.85,15.79-2.85,7.12,0,12.56,1.34,16.33,4.01,3.74,2.68,6.49,7.16,8.21,13.48.21.85.61,1.39,1.22,1.57.63.2,1.33.3,2.11.3s1.52-.2,2.31-.58c-.97-3.82-1.75-7.61-2.31-11.33-.58-3.72-.92-6.89-1.02-9.45-2.51-.68-4.91-1.28-7.22-1.8-2.3-.53-4.67-.96-7.07-1.29-2.4-.34-4.93-.58-7.58-.72-2.64-.13-5.55-.22-8.71-.22-8.09,0-15.16,1.46-21.24,4.38-6.05,2.91-11.08,6.7-15.08,11.31-3.99,4.64-6.98,9.83-8.94,15.57-1.98,5.73-2.97,11.42-2.97,17.05,0,6.79.99,13.12,2.97,19,1.96,5.89,4.95,11.01,8.94,15.35,4,4.34,9.02,7.76,15.08,10.26,6.08,2.47,13.15,3.72,21.24,3.72,5.87,0,11.24-.22,16.15-.64,2.07-.17,4.13-.4,6.16-.64.32,0,.65.02.97.04-.97,1.75-2.29,3.31-3.89,4.5-.02.02-.06.04-.08.08-2.28,1.63-5.05,2.62-8.08,2.62-1.9,0-3.71-.37-5.33-1.09,2.67,2.07,6,3.27,9.63,3.27s6.73-1.14,9.38-3.05c.02-.04.06-.06.09-.08,2.51-1.85,4.44-4.44,5.48-7.44.14-.42.28-.84.38-1.25.1-.52.21-1.04.32-1.56.67-3.08,1.43-6.17,2.31-9.24,1.16-4.02,2.3-7.7,3.46-11.05-.28-.18-.7-.36-1.22-.5-.54-.13-1.04-.22-1.52-.22"/>
    <path class="cls-1" d="m268.83,1.51c-2.35.14-4.7.22-7,.22-1.93,0-4.21-.07-6.85-.22-2.65-.14-5.37-.31-8.16-.5-.2.96-.29,1.73-.29,2.3,0,1.52.52,2.33,1.58,2.44,3.76.47,6.35,1.14,7.8,2,1.44.86,2.17,2.25,2.17,4.15v45.16c0,5.55-.53,10.31-1.59,14.27-1.06,3.97-2.8,7.19-5.2,9.67-2.4,2.49-5.48,4.33-9.23,5.52-3.76,1.2-8.33,1.8-13.72,1.8-9.53,0-16.29-2.65-20.29-7.95-3.99-5.31-5.99-12.93-5.99-22.87V11.9c0-1.9.8-3.29,2.38-4.15,1.59-.86,4.21-1.53,7.87-2,.96-.1,1.44-.91,1.44-2.44,0-.58-.09-1.35-.29-2.3-2.89.2-6.01.36-9.38.5-3.37.14-6.3.22-8.81.22-2.78,0-5.69-.07-8.73-.22-3.03-.14-5.98-.31-8.87-.5-.2.96-.29,1.73-.29,2.3,0,1.52.47,2.33,1.44,2.44,3.75.47,6.3,1.14,7.66,2,1.34.86,2.01,2.25,2.01,4.15v48.75c0,4.49.46,8.92,1.38,13.27.91,4.35,2.73,8.19,5.48,11.54,2.74,3.34,6.67,6.04,11.77,8.1,5.1,2.06,11.79,3.08,20.07,3.08,7.21,0,13.23-.88,18.05-2.65,4.81-1.77,8.67-4.27,11.61-7.53,2.94-3.25,5.03-7.09,6.28-11.54,1.25-4.44,1.88-9.39,1.88-14.84V11.9c0-1.9.7-3.32,2.1-4.22,1.39-.9,3.86-1.55,7.43-1.93.48-.1.86-.41,1.15-.94.3-.52.43-1.03.43-1.5,0-.58-.09-1.35-.29-2.3-2.3.2-4.64.36-7,.5"/>
    <path class="cls-1" d="m359.45,69.11c-1.5,4.2-3.6,7.84-6.29,10.89-2.69,3.06-5.91,5.45-9.66,7.17-3.76,1.72-7.9,2.58-12.42,2.58-5.58,0-10.53-1.24-14.86-3.73-4.34-2.49-7.97-5.95-10.9-10.39-2.94-4.45-5.17-9.7-6.71-15.77-1.54-6.07-2.31-12.64-2.31-19.72,0-5.34.82-10.08,2.46-14.19,1.63-4.11,3.82-7.57,6.57-10.39,2.74-2.83,5.92-4.97,9.53-6.45,3.61-1.48,7.38-2.22,11.33-2.22,5.96,0,11.18,1.24,15.66,3.72,4.47,2.49,8.18,5.91,11.11,10.26,2.94,4.35,5.13,9.46,6.58,15.34,1.44,5.88,2.16,12.26,2.16,19.13,0,4.97-.74,9.57-2.23,13.77m4.61-54.56c-4.09-4.44-9.26-7.97-15.52-10.61C342.29,1.32,334.98,0,326.61,0c-6.06,0-11.84,1.28-17.33,3.87-5.48,2.58-10.3,6.07-14.43,10.46-4.14,4.4-7.42,9.52-9.81,15.34-2.41,5.83-3.62,12.04-3.62,18.64,0,7.27,1.13,13.86,3.39,19.78,2.26,5.93,5.44,11.02,9.53,15.27,4.1,4.25,8.98,7.52,14.65,9.82,5.68,2.29,11.93,3.44,18.76,3.44s13.07-1.11,18.98-3.3c5.92-2.2,11.07-5.38,15.45-9.54,4.38-4.16,7.82-9.23,10.33-15.2,2.5-5.97,3.75-12.73,3.75-20.29,0-6.4-1.01-12.53-3.03-18.35-2.02-5.83-5.08-10.96-9.17-15.41"/>
    <path class="cls-1" d="m170.37,65.24c5.84.59,10.37,5.46,10.37,11.41,0,2.95-1.13,5.66-2.97,7.69-1.22,1.34-2.73,2.37-4.45,3.03-.38.13-.76.26-1.14.36-1.19-.94-2.31-2.14-3.37-3.57l-9.61-13.27-.98-1.34-13.51-18.65c3.17-1.14,5.93-2.65,8.3-4.52,2.34-1.85,4.26-3.88,5.76-6.09,1.49-2.19,2.59-4.44,3.31-6.73.72-2.29,1.09-4.5,1.09-6.59,0-7.75-2.65-13.88-7.94-18.43-5.29-4.54-13.13-6.8-23.51-6.8h-19.49c-2.81,0-5.73-.08-8.8-.23-3.08-.15-6.07-.32-8.96-.51-.18.98-.29,1.73-.29,2.31,0,1.53.48,2.32,1.45,2.43,4.03.47,6.76,1.17,8.16,2.07,1.39.92,2.09,2.29,2.09,4.11v72.97c0,1.91-.74,3.27-2.25,4.09-1.48.81-4.05,1.49-7.72,2.07-1.06.21-1.58.96-1.58,2.29,0,.58.1,1.36.28,2.31,2.89-.21,5.98-.38,9.25-.52,3.27-.13,6.16-.2,8.66-.2,3.57,0,7.19.06,10.9.2,3.71.14,6.85.32,9.44.52.2-.96.3-1.78.3-2.46,0-1.43-.58-2.25-1.75-2.43-4.03-.47-7.04-1.1-9.01-1.87-1.97-.76-2.95-2.19-2.95-4.3V7.61h7.21c3.95,0,7.28.51,10.02,1.57,2.75,1.06,4.95,2.49,6.64,4.31,1.69,1.81,2.93,3.96,3.69,6.45.76,2.49,1.16,5.21,1.16,8.16,0,7.09-1.84,12.02-5.49,14.86-3.65,2.81-8.86,4.21-15.6,4.21h-6.81c.47,3.01,5.31,5.46,6.62,5.88h3.24l23.1,33.12c1.02,1.51,2.09,2.87,3.19,4.06.04.02.06.06.08.09,2.89,3.82,7.5,6.32,12.69,6.32,1.98,0,3.88-.36,5.65-1.04,2.36-.89,4.45-2.33,6.11-4.16,2.53-2.78,4.07-6.49,4.07-10.53,0-8.3-6.45-15.08-14.65-15.67"/>
    <path class="cls-1" d="m459.73,65.24c5.84.59,10.36,5.46,10.36,11.41,0,2.95-1.12,5.66-2.96,7.69-1.22,1.34-2.73,2.37-4.45,3.03-.38.13-.77.26-1.15.36-1.18-.94-2.3-2.14-3.36-3.57l-9.61-13.27-.98-1.34-13.51-18.65c3.17-1.14,5.93-2.65,8.29-4.52,2.35-1.85,4.27-3.88,5.78-6.09,1.49-2.19,2.59-4.44,3.31-6.73.72-2.29,1.08-4.5,1.08-6.59,0-7.75-2.64-13.88-7.93-18.43-5.29-4.54-13.13-6.8-23.51-6.8h-19.49c-2.81,0-5.73-.08-8.82-.23-3.07-.15-6.05-.32-8.94-.51-.21.98-.29,1.73-.29,2.31,0,1.53.48,2.32,1.45,2.43,4.03.47,6.75,1.17,8.14,2.07,1.41.92,2.11,2.29,2.11,4.11v72.97c0,1.91-.75,3.27-2.25,4.09-1.48.81-4.07,1.49-7.72,2.07-1.06.21-1.58.96-1.58,2.29,0,.58.1,1.36.28,2.31,2.89-.21,5.97-.38,9.25-.52,3.27-.13,6.16-.2,8.65-.2,3.58,0,7.2.06,10.91.2,3.69.14,6.85.32,9.44.52.2-.96.3-1.78.3-2.46,0-1.43-.59-2.25-1.75-2.43-4.03-.47-7.04-1.1-9.02-1.87-1.96-.76-2.95-2.19-2.95-4.3V7.61h7.22c3.93,0,7.28.51,10.02,1.57,2.75,1.06,4.95,2.49,6.64,4.31,1.69,1.81,2.91,3.96,3.69,6.45.76,2.49,1.16,5.21,1.16,8.16,0,7.09-1.84,12.02-5.5,14.86-3.67,2.81-8.86,4.21-15.59,4.21h-6.81c.47,3.01,5.3,5.46,6.61,5.88h3.25l23.08,33.12c1.04,1.51,2.11,2.87,3.21,4.06,2.89,3.88,7.53,6.41,12.77,6.41,2,0,3.9-.36,5.65-1.04,2.36-.89,4.45-2.33,6.11-4.16,2.53-2.78,4.07-6.49,4.07-10.53,0-8.3-6.45-15.08-14.65-15.67"/>
  </g>
</svg>